<svg width="64" height="51" viewBox="0 0 64 51" fill="none" xmlns="http://www.w3.org/2000/svg">
    <path fill-rule="evenodd" clip-rule="evenodd"
        d="M32 24.4957L5.23242 0.784657C3.86731 -0.424572 1.85076 -0.212627 0.728333 1.25805C-0.394096 2.72873 -0.197365 4.90123 1.16775 6.11046L29.1547 30.9016C30.808 32.3661 33.192 32.3661 34.8453 30.9016L62.8323 6.11046C64.1974 4.90123 64.3941 2.72873 63.2717 1.25805C62.1492 -0.212627 60.1327 -0.424572 58.7676 0.784657L32 24.4957Z"
        fill="#672c89" fill-opacity="0.1" />
    <path fill-rule="evenodd" clip-rule="evenodd"
        d="M32 24.4957L5.23242 0.784657C3.86731 -0.424572 1.85076 -0.212627 0.728333 1.25805C-0.394096 2.72873 -0.197365 4.90123 1.16775 6.11046L29.1547 30.9016C30.808 32.3661 33.192 32.3661 34.8453 30.9016L62.8323 6.11046C64.1974 4.90123 64.3941 2.72873 63.2717 1.25805C62.1492 -0.212627 60.1327 -0.424572 58.7676 0.784657L32 24.4957Z"
        fill="#672c89" fill-opacity="0.1" />
    <path fill-rule="evenodd" clip-rule="evenodd"
        d="M32 24.4957L5.23242 0.784657C3.86731 -0.424572 1.85076 -0.212627 0.728333 1.25805C-0.394096 2.72873 -0.197365 4.90123 1.16775 6.11046L29.1547 30.9016C30.808 32.3661 33.192 32.3661 34.8453 30.9016L62.8323 6.11046C64.1974 4.90123 64.3941 2.72873 63.2717 1.25805C62.1492 -0.212627 60.1327 -0.424572 58.7676 0.784657L32 24.4957Z"
        fill="#672c89" fill-opacity="0.1" />
    <path fill-rule="evenodd" clip-rule="evenodd"
        d="M32 24.4957L5.23242 0.784657C3.86731 -0.424572 1.85076 -0.212627 0.728333 1.25805C-0.394096 2.72873 -0.197365 4.90123 1.16775 6.11046L29.1547 30.9016C30.808 32.3661 33.192 32.3661 34.8453 30.9016L62.8323 6.11046C64.1974 4.90123 64.3941 2.72873 63.2717 1.25805C62.1492 -0.212627 60.1327 -0.424572 58.7676 0.784657L32 24.4957Z"
        fill="#287BCB" />
    <g opacity="0.3">
        <path fill-rule="evenodd" clip-rule="evenodd"
            d="M32 44.1992L7.74188 22.7111C6.50475 21.6152 4.67725 21.8073 3.66005 23.1401C2.64285 24.4729 2.82114 26.4417 4.05827 27.5376L29.4215 50.0046C30.9198 51.3318 33.0802 51.3318 34.5785 50.0046L59.9417 27.5376C61.1789 26.4417 61.3571 24.4729 60.3399 23.1401C59.3227 21.8073 57.4953 21.6152 56.2581 22.7111L32 44.1992Z"
            fill="#B2DEFF" />
        <path fill-rule="evenodd" clip-rule="evenodd"
            d="M32 44.1992L7.74188 22.7111C6.50475 21.6152 4.67725 21.8073 3.66005 23.1401C2.64285 24.4729 2.82114 26.4417 4.05827 27.5376L29.4215 50.0046C30.9198 51.3318 33.0802 51.3318 34.5785 50.0046L59.9417 27.5376C61.1789 26.4417 61.3571 24.4729 60.3399 23.1401C59.3227 21.8073 57.4953 21.6152 56.2581 22.7111L32 44.1992Z"
            fill="#0055A1" />
    </g>
</svg>