<svg width="1365" height="571" viewBox="0 0 1365 571" fill="none" xmlns="http://www.w3.org/2000/svg">
<g opacity="0.12" filter="url(#filter0_f_54_712)">
<path d="M375.828 465.98C380.341 447.55 366.074 428.22 343.962 422.805C321.85 417.39 300.266 427.941 295.752 446.371C291.239 464.801 305.506 484.132 327.618 489.547C349.73 494.962 371.315 484.411 375.828 465.98Z" fill="#FF725E"/>
<path d="M374.248 472.453C378.761 454.022 364.494 434.692 342.382 429.277C320.27 423.862 298.685 434.413 294.172 452.844C289.659 471.274 303.926 490.604 326.038 496.019C348.15 501.434 369.734 490.883 374.248 472.453Z" fill="#FF725E"/>
<g opacity="0.1">
<path d="M301.472 439.509C297.923 443.229 295.408 447.812 294.175 452.803C289.655 471.243 303.93 490.573 326.011 495.985C334.488 498.128 343.397 497.845 351.722 495.17C351.335 485.083 348.804 475.194 344.297 466.162C339.789 457.248 333.18 450.04 323.77 446.22C317.224 443.597 309.074 439.713 301.472 439.509Z" fill="white"/>
</g>
<path d="M339.497 437.815C356.497 441.979 367.512 456.624 364.112 470.53C360.712 484.435 344.157 492.343 327.183 488.192C310.208 484.041 299.167 469.371 302.567 455.465C305.967 441.559 322.496 433.651 339.497 437.815Z" fill="#FF725E"/>
<path d="M340.541 436.784C357.095 440.833 367.894 455.045 364.596 468.518C361.298 481.99 345.176 489.618 328.596 485.569C312.016 481.519 301.23 467.295 304.528 453.822C307.826 440.349 323.923 432.721 340.541 436.784Z" fill="#FF725E"/>
<g opacity="0.2">
<path d="M340.541 436.784C357.095 440.833 367.894 455.045 364.596 468.518C361.298 481.99 345.176 489.618 328.596 485.569C312.016 481.519 301.23 467.295 304.528 453.822C307.826 440.349 323.923 432.721 340.541 436.784Z" fill="white"/>
</g>
<path d="M331.321 459.03L323.362 457.082C323.838 455.954 324.491 454.909 325.298 453.988C325.798 453.511 326.344 453.085 326.928 452.714L326.711 452.561L324.075 450.881L323.477 450.499L321.707 451.263L321.885 451.887C320.625 453.027 319.667 454.462 319.096 456.063L314.716 454.981L313.353 455.796L314.448 456.076L314.079 457.553L318.536 458.648C318.175 460.712 318.64 462.835 319.832 464.557C321.023 466.28 322.845 467.465 324.903 467.855C330.392 469.192 332.722 465.818 334.645 462.596L342.54 464.519C341.681 466.819 340.082 468.767 337.994 470.058L341.636 472.452C344.124 470.847 345.953 468.403 346.793 465.563L350.104 466.378L349.837 467.652L351.174 466.684L351.811 464.137L347.392 463.055C347.758 460.983 347.296 458.851 346.105 457.117C344.914 455.383 343.089 454.186 341.025 453.784C335.549 452.345 333.244 455.809 331.321 459.03ZM329.869 461.399C328.749 463.055 327.552 464.188 325.654 463.729C324.757 463.541 323.965 463.017 323.442 462.264C322.919 461.511 322.704 460.587 322.84 459.68L329.869 461.399ZM343.088 461.908L336.096 460.202C337.23 458.483 338.478 457.324 340.413 457.795C342.107 458.215 343.215 459.514 343.088 461.908Z" fill="#FF725E"/>
<path d="M346.042 463.768L350.461 464.85L349.837 467.397L345.456 466.327C344.627 469.154 342.822 471.596 340.362 473.217L336.657 470.835C338.738 469.54 340.332 467.592 341.19 465.296L333.295 463.373C331.385 466.595 329.042 469.969 323.553 468.632C321.492 468.248 319.666 467.065 318.473 465.34C317.281 463.616 316.818 461.489 317.186 459.425L312.729 458.33L313.353 455.783L317.734 456.866C318.439 454.579 319.825 452.563 321.707 451.084L325.374 453.338C323.883 454.555 322.723 456.127 322 457.91L329.971 459.858C331.881 456.636 334.199 453.173 339.687 454.523C341.746 454.925 343.565 456.118 344.753 457.847C345.942 459.576 346.404 461.701 346.042 463.768ZM328.52 462.201L321.503 460.482C321.363 461.389 321.577 462.315 322.101 463.069C322.625 463.823 323.418 464.346 324.317 464.532C326.202 464.99 327.399 463.857 328.52 462.201ZM339.064 458.598C337.128 458.126 335.893 459.285 334.759 461.004L341.738 462.711C341.865 460.317 340.757 459.018 339.064 458.598Z" fill="#FF725E"/>
<path d="M311.316 442.387C311.316 442.387 311.494 442.196 311.889 441.903C312.452 441.449 313.039 441.024 313.646 440.629C315.877 439.202 318.282 438.068 320.803 437.255C324.546 436.028 328.464 435.417 332.404 435.447C334.726 435.475 337.041 435.718 339.318 436.172C341.766 436.677 344.156 437.432 346.449 438.426C350.894 440.312 354.951 443.002 358.42 446.36C360.82 448.647 362.671 451.449 363.831 454.554C364.991 457.66 365.431 460.989 365.118 464.29C365.029 465.219 364.876 465.933 364.8 466.416C364.783 466.664 364.732 466.909 364.647 467.142C364.616 466.893 364.616 466.64 364.647 466.391C364.647 465.907 364.774 465.194 364.838 464.264C364.958 461.657 364.657 459.046 363.946 456.535C362.815 452.83 360.755 449.476 357.961 446.793C354.526 443.517 350.527 440.89 346.157 439.038C343.918 438.084 341.588 437.359 339.204 436.873C336.964 436.417 334.688 436.165 332.404 436.122C328.52 436.059 324.652 436.613 320.943 437.764C318.441 438.526 316.039 439.582 313.786 440.91C312.181 441.826 311.354 442.438 311.316 442.387Z" fill="black"/>
<path d="M344.374 429.894C345.014 429.958 345.646 430.091 346.259 430.289C346.995 430.446 347.719 430.659 348.423 430.926C349.377 431.23 350.312 431.587 351.225 431.996C352.35 432.453 353.443 432.985 354.498 433.587C355.727 434.246 356.922 434.969 358.076 435.752C360.696 437.577 363.119 439.668 365.309 441.992C367.456 444.36 369.354 446.942 370.976 449.696C371.665 450.906 372.29 452.151 372.848 453.427C373.766 455.44 374.495 457.533 375.025 459.68C375.231 460.407 375.388 461.148 375.496 461.896C375.633 462.525 375.718 463.163 375.751 463.806C375.598 463.806 375.242 461.093 373.739 456.968C373.335 455.84 372.872 454.735 372.351 453.657C371.842 452.46 371.141 451.275 370.441 450.002C367.239 444.552 362.894 439.86 357.707 436.249C356.497 435.459 355.364 434.657 354.217 434.059C353.184 433.455 352.117 432.911 351.021 432.429C347.035 430.608 344.297 430.035 344.374 429.894Z" fill="black"/>
<path d="M330.723 496.444C330.301 496.512 329.871 496.512 329.449 496.444C328.336 496.315 327.23 496.124 326.138 495.871C322.516 495.052 319.015 493.768 315.722 492.051C312.424 490.349 309.356 488.236 306.591 485.76C305.749 485.015 304.954 484.22 304.21 483.378C303.911 483.095 303.65 482.774 303.433 482.423C303.522 482.334 304.707 483.595 306.897 485.403C312.536 490.114 319.145 493.523 326.253 495.387C329.016 496.062 330.735 496.329 330.723 496.444Z" fill="white"/>
<path d="M343.864 495.743C342.764 496.215 341.585 496.474 340.388 496.507C339.22 496.759 338.016 496.794 336.835 496.609C339.103 495.882 341.488 495.588 343.864 495.743Z" fill="white"/>
<path d="M308.323 448.181C308.438 448.181 307.699 449.582 307.05 451.925C306.634 453.297 306.34 454.703 306.171 456.127C305.764 459.614 306.107 463.149 307.177 466.493C307.613 467.854 308.167 469.175 308.832 470.44C309.978 472.605 310.972 473.789 310.87 473.866C310.768 473.942 310.564 473.611 310.106 473.089C309.477 472.332 308.915 471.523 308.425 470.67C307.681 469.406 307.066 468.071 306.591 466.684C306.035 464.974 305.656 463.212 305.458 461.425C305.308 459.634 305.347 457.833 305.572 456.051C305.771 454.597 306.116 453.168 306.604 451.785C306.921 450.851 307.322 449.947 307.801 449.085C308.081 448.474 308.285 448.155 308.323 448.181Z" fill="white"/>
<path d="M323.757 466.837C323.757 466.913 323.451 467.079 322.891 467.091C322.15 467.112 321.42 466.903 320.803 466.493C320.174 466.1 319.677 465.528 319.376 464.85C319.16 464.315 319.173 463.959 319.249 463.946C319.326 463.933 319.86 465.13 321.159 465.932C322.458 466.735 323.732 466.646 323.757 466.837Z" fill="white"/>
<path d="M340.681 471.166C340.757 471.166 340.783 471.357 340.681 471.536C340.598 471.637 340.493 471.719 340.374 471.774C340.255 471.829 340.124 471.856 339.993 471.854C339.862 471.859 339.73 471.833 339.611 471.778C339.491 471.723 339.387 471.64 339.306 471.536C339.178 471.37 339.204 471.217 339.306 471.179C339.407 471.141 339.726 471.179 340.031 471.179C340.337 471.179 340.477 471.09 340.681 471.166Z" fill="white"/>
<path d="M97.2425 335.747C96.4229 321.367 87.536 301.523 73.0554 282.124C58.5747 262.726 42.0377 248.576 28.4774 243.701L22.294 235.404L9.81211 244.722C-3.69071 254.788 3.4993 287.316 25.9033 317.312C48.3074 347.309 77.4125 363.443 90.9297 353.349L103.397 344.045L97.2425 335.747Z" fill="#FF725E"/>
<g opacity="0.3">
<path d="M97.2425 335.747C96.4229 321.367 87.536 301.523 73.0554 282.124C58.5747 262.726 42.0377 248.576 28.4774 243.701L22.294 235.404L9.81211 244.722C-3.69071 254.788 3.4993 287.316 25.9033 317.312C48.3074 347.309 77.4125 363.443 90.9297 353.349L103.397 344.045L97.2425 335.747Z" fill="black"/>
</g>
<path d="M37.5222 308.656C15.1326 278.659 7.91381 246.16 21.4598 236.022C35.0057 225.884 64.0533 242.091 86.4574 272.087C108.861 302.084 116.066 334.583 102.577 344.663C89.0889 354.743 59.9263 338.652 37.5222 308.656Z" fill="#FF725E"/>
<g opacity="0.1">
<path d="M49.0552 259.605C50.623 266.451 52.6699 273.178 55.1811 279.737C64.9019 302.587 85.2928 320.562 109.279 325.753C108.646 311.086 100.564 291.141 86.4144 272.174C72.8541 254.026 56.8491 240.954 43.2744 235.691C45 243.701 46.9413 251.682 49.0552 259.605Z" fill="white"/>
</g>
<path d="M48.1779 302.271C30.9219 279.263 21.503 257.247 30.5768 250.503C40.197 243.313 63.7946 254.716 81.0075 277.825C98.2203 300.933 104.835 325.049 95.7614 331.822C93.5469 333.49 91.1166 335.287 84.3437 334.424C73.6449 332.972 61.1631 319.671 48.1779 302.271Z" fill="#FF725E"/>
<g opacity="0.3">
<path d="M48.1779 302.271C30.9219 279.263 21.503 257.247 30.5768 250.503C40.197 243.313 63.7946 254.716 81.0075 277.825C98.2203 300.933 104.835 325.049 95.7614 331.822C93.5469 333.49 91.1166 335.287 84.3437 334.424C73.6449 332.972 61.1631 319.671 48.1779 302.271Z" fill="black"/>
</g>
<path d="M43.677 304.054C26.8811 281.564 20.669 257.837 29.6709 251.064C38.6727 244.291 59.7107 257.046 76.5209 279.536C93.3311 302.026 99.5289 325.768 90.5126 332.541C81.4964 339.314 60.4728 326.616 43.677 304.054Z" fill="#FF725E"/>
<g opacity="0.2">
<path d="M43.677 304.054C26.8811 281.564 20.669 257.837 29.6709 251.064C38.6727 244.291 59.7107 257.046 76.5209 279.536C93.3311 302.026 99.5289 325.768 90.5126 332.541C81.4964 339.314 60.4728 326.616 43.677 304.054Z" fill="white"/>
</g>
<path d="M61.839 296.893L69.4604 306.815C68.1118 307.467 66.6432 307.834 65.1464 307.893C64.2344 307.847 63.329 307.712 62.4429 307.491L62.6011 307.85L64.413 312.164L64.83 313.157L67.3321 314.192L67.5622 313.415C69.6234 313.59 71.69 313.149 73.5012 312.15L77.7001 317.6L79.7708 318.19L78.7211 316.752L80.1591 315.673L75.8451 310.122C79.9146 305.808 78.7211 299.74 74.9104 294.736C69.6617 287.891 64.7581 288.84 60.4441 290.048L52.8946 280.212C55.6206 278.825 58.7719 278.527 61.7096 279.378L59.3081 273.41C57.5609 272.923 55.7312 272.806 53.9361 273.066C52.141 273.326 50.4198 273.957 48.8826 274.92L45.719 270.807L46.855 269.873L44.698 269.47L42.2534 271.339L46.4811 276.847C42.4116 281.161 43.5045 287.258 47.3439 292.277C52.5926 299.136 57.525 298.101 61.839 296.893ZM65.0745 296.044C67.4472 295.555 69.561 295.656 71.3729 298.014C73.1848 300.373 73.5011 302.63 71.8043 304.802L65.0745 296.044ZM50.5938 282.24L57.2805 290.939C54.8503 291.471 52.6645 291.342 50.8239 288.941C49.9747 288.044 49.4826 286.868 49.4402 285.634C49.3978 284.399 49.8081 283.192 50.5938 282.24Z" fill="#FF725E"/>
<g opacity="0.3">
<path d="M61.839 296.893L69.4604 306.815C68.1118 307.467 66.6432 307.834 65.1464 307.893C64.2344 307.847 63.329 307.712 62.4429 307.491L62.6011 307.85L64.413 312.164L64.83 313.157L67.3321 314.192L67.5622 313.415C69.6234 313.59 71.69 313.149 73.5012 312.15L77.7001 317.6L79.7708 318.19L78.7211 316.752L80.1591 315.673L75.8451 310.122C79.9146 305.808 78.7211 299.74 74.9104 294.736C69.6617 287.891 64.7581 288.84 60.4441 290.048L52.8946 280.212C55.6206 278.825 58.7719 278.527 61.7096 279.378L59.3081 273.41C57.5609 272.923 55.7312 272.806 53.9361 273.066C52.141 273.326 50.4198 273.957 48.8826 274.92L45.719 270.807L46.855 269.873L44.698 269.47L42.2534 271.339L46.4811 276.847C42.4116 281.161 43.5045 287.258 47.3439 292.277C52.5926 299.136 57.525 298.101 61.839 296.893ZM65.0745 296.044C67.4472 295.555 69.561 295.656 71.3729 298.014C73.1848 300.373 73.5011 302.63 71.8043 304.802L65.0745 296.044ZM50.5938 282.24L57.2805 290.939C54.8503 291.471 52.6645 291.342 50.8239 288.941C49.9747 288.044 49.4826 286.868 49.4402 285.634C49.3978 284.399 49.8081 283.192 50.5938 282.24Z" fill="black"/>
</g>
<path d="M49.4002 276.689L45.5176 270.937L48.0772 269.211L51.9167 274.963C53.5115 274.101 55.2679 273.579 57.0749 273.43C58.8818 273.282 60.6999 273.51 62.4141 274.1L64.5136 280.241C61.6339 279.193 58.4612 279.296 55.6555 280.528L62.5867 290.81C66.9726 289.875 71.9336 289.228 76.7366 296.375C80.274 301.624 81.0506 307.75 76.7366 311.79L80.6623 317.614L78.1027 319.325L74.2632 313.573C71.6769 314.953 68.679 315.352 65.8222 314.695L63.6076 308.641C65.9236 309.123 68.3306 308.908 70.5244 308.023L63.5213 297.626C59.2073 298.575 54.1456 299.309 49.3427 292.162C45.7764 286.899 45.0574 280.801 49.4002 276.689ZM52.9808 288.998C54.6776 291.515 56.849 291.773 59.308 291.4L53.1677 282.297C52.3247 283.199 51.8404 284.378 51.806 285.612C51.7715 286.846 52.1894 288.05 52.9808 288.998ZM66.7712 296.979L72.9402 306.139C74.7665 304.083 74.3782 301.595 72.9402 299.337C71.5022 297.08 69.1727 296.634 66.7712 296.979Z" fill="#FF725E"/>
<path d="M78.6492 333.921C78.3805 333.848 78.1238 333.737 77.8871 333.59L75.802 332.498C74.8961 332.023 73.7888 331.419 72.5521 330.657C71.3154 329.895 69.8631 329.075 68.3532 328.054C60.3112 322.842 53.1471 316.386 47.1283 308.929C41.2002 301.421 36.1714 293.246 32.1443 284.569C30.6057 281.233 29.3977 278.529 28.6644 276.617L27.8016 274.431C27.6746 274.183 27.5872 273.916 27.5427 273.64C27.6938 273.873 27.8238 274.118 27.931 274.374C28.1898 274.934 28.5206 275.639 28.9376 276.502C29.7572 278.371 31.0371 281.046 32.6189 284.339C36.7619 292.901 41.8247 300.987 47.7179 308.454C53.6964 315.848 60.749 322.304 68.6408 327.608C70.0788 328.658 71.5168 329.535 72.7678 330.297C74.0189 331.06 75.0542 331.735 75.9458 332.239L77.959 333.461C78.2058 333.588 78.4373 333.742 78.6492 333.921Z" fill="#263238"/>
<path d="M1347.38 98.1737C1356.67 71.4186 1346.12 43.4557 1323.82 35.7167C1301.52 27.9777 1275.92 43.3934 1266.63 70.1485C1257.35 96.9036 1267.9 124.866 1290.2 132.605C1312.49 140.344 1338.1 124.929 1347.38 98.1737Z" fill="#FF725E"/>
<g opacity="0.2">
<path d="M1347.38 98.1737C1356.67 71.4186 1346.12 43.4556 1323.82 35.7166C1301.52 27.9777 1275.92 43.3933 1266.63 70.1484C1257.35 96.9035 1267.9 124.866 1290.2 132.605C1312.49 140.344 1338.1 124.929 1347.38 98.1737Z" fill="black"/>
</g>
<path d="M1339.56 95.4696C1348.85 68.7145 1338.3 40.7516 1316 33.0126C1293.7 25.2736 1268.1 40.6892 1258.81 67.4443C1249.53 94.1994 1260.08 122.162 1282.37 129.901C1304.67 137.64 1330.28 122.225 1339.56 95.4696Z" fill="#FF725E"/>
<g opacity="0.1">
<path d="M1331.59 43.5896C1327.41 38.7429 1322.03 35.0785 1315.99 32.9628C1293.68 25.212 1268.09 40.6274 1258.8 67.3885C1255.16 77.6431 1254.47 88.7145 1256.81 99.3409C1269.36 99.9824 1281.89 97.9583 1293.6 93.402C1305.19 88.8435 1314.85 81.5097 1320.68 70.3077C1324.7 62.6144 1330.47 52.9798 1331.59 43.5896Z" fill="white"/>
</g>
<path d="M1329.26 90.8711C1322.07 111.435 1302.7 123.37 1285.88 117.532C1269.05 111.693 1261.19 90.2959 1268.33 69.7325C1275.48 49.1691 1294.89 37.2768 1311.72 43.0288C1328.54 48.7808 1336.39 70.3509 1329.26 90.8711Z" fill="#FF725E"/>
<g opacity="0.2">
<path d="M1329.26 90.8711C1322.07 111.435 1302.7 123.37 1285.88 117.532C1269.05 111.693 1261.19 90.2959 1268.33 69.7325C1275.48 49.1691 1294.89 37.2768 1311.72 43.0288C1328.54 48.7808 1336.39 70.3509 1329.26 90.8711Z" fill="black"/>
</g>
<path d="M1330.43 92.2946C1323.47 112.427 1304.61 124.031 1288.31 118.38C1272 112.729 1264.42 91.9208 1271.41 71.7888C1278.4 51.6568 1297.22 40.0377 1313.53 45.7035C1329.84 51.3692 1337.39 72.2202 1330.43 92.2946Z" fill="#FF725E"/>
<g opacity="0.2">
<path d="M1330.43 92.2946C1323.47 112.427 1304.61 124.031 1288.31 118.38C1272 112.729 1264.42 91.9208 1271.41 71.7888C1278.4 51.6568 1297.22 40.0377 1313.53 45.7035C1329.84 51.3692 1337.39 72.2202 1330.43 92.2946Z" fill="white"/>
</g>
<g opacity="0.3">
<path d="M1303.95 78.2886L1307.29 68.654C1309.48 69.6561 1311.25 71.4037 1312.28 73.5864L1312.48 73.3132L1314.87 70.2646L1315.41 69.56L1314.68 67.2736L1313.89 67.4174C1312.61 65.7329 1310.95 64.3812 1309.04 63.4772L1310.88 58.1854L1310.03 56.4023L1309.57 57.7252L1307.76 57.1069L1305.89 62.4994C1303.38 61.8111 1300.7 62.1388 1298.43 63.4117C1296.16 64.6845 1294.48 66.8002 1293.76 69.3011C1291.46 75.9447 1295.37 79.2233 1299.13 81.9843L1295.83 91.5326C1293.08 90.2018 1290.85 87.9968 1289.49 85.2629L1286.11 89.4907C1287.81 92.7494 1290.62 95.2971 1294.03 96.6807L1292.59 100.678L1291.15 100.204L1292.19 101.987L1295.31 103.065L1297.21 97.6729C1299.73 98.3677 1302.42 98.0457 1304.7 96.7763C1306.98 95.5068 1308.68 93.3914 1309.42 90.8855C1311.72 84.2995 1307.72 81.0352 1303.95 78.2886ZM1301.19 76.2036C1299.26 74.6217 1298 73.0112 1298.79 70.7104C1299.13 69.6197 1299.87 68.7001 1300.86 68.1409C1301.86 67.5817 1303.03 67.4257 1304.14 67.705L1301.19 76.2036ZM1299.01 92.5105L1301.88 84.055C1303.88 85.6656 1305.17 87.3337 1304.35 89.6776C1303.71 91.7339 1301.97 92.9419 1299.01 92.5105Z" fill="black"/>
</g>
<path d="M1296.37 95.9616L1294.52 101.311L1291.4 100.232L1293.24 94.9262C1289.83 93.5426 1287.02 90.995 1285.32 87.7362L1288.69 83.5085C1290.05 86.2409 1292.29 88.4421 1295.04 89.7638L1298.34 80.2299C1294.58 77.4689 1290.67 74.1903 1292.97 67.5467C1293.69 65.0457 1295.37 62.9301 1297.64 61.6572C1299.91 60.3844 1302.59 60.0567 1305.1 60.745L1306.97 55.3525L1310.09 56.431L1308.25 61.7228C1310.99 62.8751 1313.32 64.824 1314.94 67.3166L1311.72 71.6306C1310.39 69.6441 1308.59 68.0223 1306.47 66.914L1303.12 76.563C1306.89 79.3096 1310.9 82.5738 1308.6 89.203C1307.83 91.692 1306.13 93.7868 1303.85 95.0471C1301.57 96.3075 1298.89 96.6353 1296.37 95.9616ZM1300.34 74.3916L1303.31 65.893C1302.2 65.6137 1301.03 65.7698 1300.03 66.3289C1299.04 66.8881 1298.29 67.8078 1297.96 68.8984C1297.16 71.2568 1298.43 72.8673 1300.37 74.4491L1300.34 74.3916ZM1303.58 87.8656C1304.4 85.5217 1303.1 83.8536 1301.1 82.2431L1298.23 90.6985C1301.13 91.1874 1302.87 89.9795 1303.58 87.9232V87.8656Z" fill="#FF725E"/>
<path d="M1257.69 73.2268C1257.7 72.7151 1257.77 72.2066 1257.92 71.7169C1258.12 70.7391 1258.5 69.3586 1259.03 67.6762C1261.91 58.875 1267 50.9557 1273.8 44.6682C1274.82 43.7137 1275.89 42.816 1277 41.9791C1277.39 41.6404 1277.82 41.355 1278.28 41.1307C1278.36 41.2313 1276.66 42.5687 1274.17 45.042C1267.66 51.4607 1262.65 59.2522 1259.53 67.8487C1258.34 71.0842 1257.81 73.2268 1257.69 73.2268Z" fill="white"/>
<path d="M1320.07 51.0672C1319.99 51.1966 1318.4 50.1038 1315.6 48.939C1313.93 48.2549 1312.2 47.7207 1310.44 47.3428C1306.17 46.4075 1301.76 46.4075 1297.5 47.3428C1295.75 47.721 1294.05 48.2552 1292.41 48.939C1289.53 50.1182 1288.02 51.211 1287.95 51.0816C1288.26 50.7562 1288.61 50.4755 1289 50.2476C1289.42 49.9381 1289.87 49.6593 1290.33 49.4135C1290.88 49.1259 1291.47 48.7521 1292.19 48.4501C1293.84 47.6841 1295.57 47.0866 1297.34 46.667C1301.7 45.6321 1306.25 45.6321 1310.61 46.667C1312.38 47.0801 1314.11 47.6677 1315.77 48.4213C1316.41 48.707 1317.04 49.0286 1317.64 49.3848C1318.1 49.6316 1318.55 49.9053 1318.98 50.2044C1319.38 50.4421 1319.75 50.7322 1320.07 51.0672Z" fill="white"/>
<path d="M1295.17 67.9925C1295.08 67.9925 1294.92 67.5899 1294.96 66.8996C1295.05 65.986 1295.4 65.1171 1295.97 64.3975C1296.53 63.6703 1297.29 63.1248 1298.16 62.8301C1298.82 62.6144 1299.25 62.6719 1299.26 62.7582C1299.28 62.8445 1297.71 63.3478 1296.56 64.8577C1295.94 65.8238 1295.47 66.8814 1295.17 67.9925Z" fill="white"/>
<path d="M1287.82 88.4553C1287.82 88.4553 1287.59 88.4553 1287.4 88.369C1287.29 88.2528 1287.21 88.115 1287.16 87.9645C1287.1 87.8141 1287.08 87.6544 1287.1 87.4957C1287.11 87.3371 1287.16 87.1831 1287.24 87.0437C1287.31 86.9043 1287.42 86.7826 1287.54 86.6865C1287.76 86.5571 1287.93 86.5859 1287.98 86.6865C1288.02 86.7872 1287.86 87.1754 1287.83 87.5781C1287.8 87.9807 1287.93 88.2683 1287.82 88.4553Z" fill="white"/>
<path d="M1271.45 511.031C1274.72 507.379 1281.3 503.956 1289.27 501.857C1297.24 499.757 1304.66 499.484 1309.3 501.066L1312.71 500.16L1314.06 505.294C1315.5 510.844 1306.71 517.977 1294.37 521.227C1282.04 524.477 1270.86 522.607 1269.42 516.999L1268.07 511.865L1271.45 511.031Z" fill="#FF725E"/>
<g opacity="0.3">
<path d="M1271.45 511.031C1274.72 507.379 1281.3 503.956 1289.27 501.857C1297.24 499.757 1304.66 499.484 1309.3 501.066L1312.71 500.16L1314.06 505.294C1315.5 510.844 1306.71 517.977 1294.37 521.227C1282.04 524.477 1270.86 522.607 1269.42 516.999L1268.07 511.865L1271.45 511.031Z" fill="black"/>
</g>
<path d="M1293.09 516.529C1305.43 513.281 1314.24 506.147 1312.78 500.595C1311.31 495.042 1300.13 493.173 1287.8 496.42C1275.46 499.668 1266.65 506.802 1268.11 512.354C1269.57 517.907 1280.76 519.776 1293.09 516.529Z" fill="#FF725E"/>
<g opacity="0.1">
<path d="M1300.46 500.937C1298.58 502.424 1296.62 503.784 1294.56 505.006C1290.88 507.031 1286.76 508.158 1282.56 508.295C1278.36 508.433 1274.18 507.577 1270.37 505.797C1273.65 502.029 1280.04 498.42 1287.83 496.364C1295.29 494.408 1302.33 494.307 1307.06 495.774C1304.9 497.557 1302.69 499.283 1300.46 500.937Z" fill="white"/>
</g>
<path d="M1291.64 512.512C1301.12 510.01 1308.29 506.156 1307.32 502.446C1306.27 498.492 1297.57 496.522 1288.08 499.024C1278.58 501.526 1271.71 506.559 1272.7 510.284C1272.84 510.962 1273.14 511.598 1273.58 512.14C1274.01 512.682 1274.56 513.115 1275.19 513.404C1278.34 515.288 1284.48 514.396 1291.64 512.512Z" fill="#FF725E"/>
<g opacity="0.3">
<path d="M1291.64 512.512C1301.12 510.01 1308.29 506.156 1307.32 502.446C1306.27 498.492 1297.57 496.522 1288.08 499.024C1278.58 501.526 1271.71 506.559 1272.7 510.284C1272.84 510.962 1273.14 511.598 1273.58 512.14C1274.01 512.682 1274.56 513.115 1275.19 513.404C1278.34 515.288 1284.48 514.396 1291.64 512.512Z" fill="black"/>
</g>
<path d="M1292.43 513.936C1301.68 511.506 1308.38 506.502 1307.4 502.777C1306.42 499.053 1298.13 498.003 1288.87 500.433C1279.61 502.863 1272.92 507.868 1273.9 511.592C1274.87 515.317 1283.2 516.366 1292.43 513.936Z" fill="#FF725E"/>
<g opacity="0.2">
<path d="M1292.43 513.936C1301.68 511.506 1308.38 506.502 1307.4 502.777C1306.42 499.053 1298.13 498.003 1288.87 500.433C1279.61 502.863 1272.92 507.868 1273.9 511.592C1274.87 515.317 1283.2 516.366 1292.43 513.936Z" fill="white"/>
</g>
<path d="M1293.97 510.025C1296.06 509.507 1297.64 508.127 1297.48 506.099L1299.77 505.524L1299.52 504.503L1298.85 504.158L1298.96 504.647L1297.24 505.078C1297.03 504.493 1296.71 503.957 1296.29 503.506C1295.86 503.055 1295.35 502.699 1294.78 502.461L1292.85 503.525C1293.82 503.918 1294.6 504.67 1295.02 505.624L1290.92 506.645C1290.47 505.811 1289.73 505.168 1288.84 504.833C1287.95 504.498 1286.97 504.493 1286.08 504.819C1283.99 505.337 1282.4 506.717 1282.57 508.73L1280.25 509.306L1280.4 509.895L1279.84 510.039L1280.51 510.327L1282.78 509.751C1283.05 510.404 1283.5 510.96 1284.09 511.348L1283.99 511.606L1284.88 511.865L1285.2 511.693L1286.64 510.931H1286.75C1286.47 510.807 1286.2 510.652 1285.95 510.47C1285.57 510.145 1285.26 509.743 1285.04 509.291L1289.18 508.256C1289.64 509.069 1290.38 509.693 1291.25 510.016C1292.13 510.34 1293.09 510.343 1293.97 510.025ZM1284.8 508.17C1284.81 507.746 1284.97 507.342 1285.26 507.028C1285.54 506.715 1285.93 506.513 1286.35 506.458C1286.74 506.351 1287.15 506.372 1287.53 506.517C1287.91 506.662 1288.23 506.923 1288.45 507.264L1284.8 508.17ZM1293.76 508.385C1293.36 508.5 1292.93 508.48 1292.54 508.33C1292.16 508.179 1291.83 507.906 1291.61 507.551L1295.24 506.645C1295.24 507.064 1295.09 507.469 1294.82 507.787C1294.55 508.104 1294.17 508.312 1293.76 508.371V508.385Z" fill="#FF725E"/>
<path d="M1293.48 509.565C1292.61 509.946 1291.63 510.001 1290.72 509.718C1289.81 509.435 1289.04 508.835 1288.54 508.026L1284.47 509.306C1284.87 510.005 1285.46 510.574 1286.18 510.945L1284.31 512.081C1283.4 511.658 1282.69 510.915 1282.29 509.996L1280.05 510.701L1279.73 509.708L1282.02 508.975C1281.72 506.991 1283.23 505.509 1285.29 504.862C1286.16 504.479 1287.13 504.423 1288.04 504.703C1288.95 504.983 1289.73 505.58 1290.23 506.387L1294.26 505.107C1293.77 504.186 1292.95 503.486 1291.96 503.151L1293.83 501.958C1294.41 502.165 1294.94 502.491 1295.39 502.914C1295.84 503.337 1296.2 503.848 1296.44 504.416L1298.67 503.712L1298.99 504.718L1296.75 505.495C1297.02 507.436 1295.54 508.917 1293.48 509.565ZM1285.66 506.473C1285.24 506.557 1284.87 506.785 1284.61 507.117C1284.35 507.448 1284.21 507.862 1284.22 508.285L1287.82 507.149C1287.58 506.821 1287.24 506.58 1286.85 506.458C1286.46 506.336 1286.04 506.342 1285.66 506.473ZM1294.55 506.113L1290.98 507.249C1291.22 507.584 1291.56 507.833 1291.96 507.96C1292.35 508.086 1292.77 508.084 1293.17 507.954C1293.58 507.865 1293.95 507.63 1294.2 507.292C1294.45 506.953 1294.58 506.535 1294.55 506.113Z" fill="#FF725E"/>
<path d="M1276.8 514.483C1276.8 514.367 1278.35 514.598 1280.81 514.741C1284.02 514.958 1287.25 514.711 1290.39 514.008C1293.53 513.274 1296.58 512.218 1299.51 510.859C1300.7 510.239 1301.94 509.701 1303.2 509.248C1302.13 510.078 1300.97 510.782 1299.74 511.348C1296.83 512.861 1293.75 514.001 1290.56 514.741C1287.35 515.462 1284.04 515.642 1280.77 515.273C1279.42 515.193 1278.08 514.926 1276.8 514.483Z" fill="#263238"/>
<path d="M1298.3 514.813C1298.18 514.569 1302.81 512.757 1307.62 509.176C1309.73 507.754 1311.39 505.758 1312.41 503.424C1312.66 502.414 1312.78 501.375 1312.77 500.333C1312.91 500.595 1313 500.883 1313.04 501.181C1313.17 501.981 1313.13 502.802 1312.91 503.583C1311.99 506.092 1310.3 508.245 1308.08 509.737C1305.98 511.292 1303.72 512.613 1301.33 513.677C1300.38 514.197 1299.36 514.58 1298.3 514.813Z" fill="#263238"/>
<path d="M1301.53 495.573C1302.16 495.44 1302.81 495.44 1303.43 495.573C1304.97 495.682 1306.49 496.016 1307.93 496.565C1309.42 497.118 1310.72 498.062 1311.72 499.297C1312.45 500.261 1312.61 501.008 1312.54 501.037C1312.46 501.066 1312.09 500.448 1311.31 499.599C1310.28 498.55 1309.04 497.736 1307.66 497.212C1306.26 496.709 1304.81 496.319 1303.35 496.047C1302.72 495.998 1302.11 495.837 1301.53 495.573Z" fill="white"/>
<path d="M1294.6 502.95C1294.6 502.763 1295.32 502.849 1295.94 503.324C1296.56 503.798 1296.8 504.431 1296.63 504.546C1296.46 504.661 1296.01 504.33 1295.48 503.913C1294.95 503.496 1294.52 503.151 1294.6 502.95Z" fill="white"/>
<path d="M1312.41 509.248C1312.23 509.119 1312.69 508.285 1312.95 507.177C1313.21 506.07 1313.2 505.107 1313.4 505.064C1313.6 505.02 1313.99 506.056 1313.67 507.35C1313.35 508.644 1312.56 509.392 1312.41 509.248Z" fill="white"/>
<path d="M564.94 558.048C577.284 550.901 583.129 537.92 577.996 529.054C572.863 520.187 558.694 518.794 546.351 525.941C534.007 533.087 528.161 546.069 533.295 554.935C538.428 563.801 552.596 565.195 564.94 558.048Z" fill="#FF725E"/>
<g opacity="0.2">
<path d="M564.94 558.048C577.284 550.901 583.129 537.92 577.996 529.054C572.863 520.187 558.694 518.794 546.351 525.941C534.007 533.087 528.161 546.069 533.295 554.935C538.428 563.801 552.596 565.195 564.94 558.048Z" fill="black"/>
</g>
<path d="M562.742 554.173C575.08 546.983 580.918 534.041 575.784 525.183C570.651 516.325 556.486 514.915 544.148 522.062C531.81 529.209 525.958 542.194 531.091 551.052C536.225 559.91 550.389 561.32 562.742 554.173Z" fill="#FF725E"/>
<g opacity="0.1">
<path d="M537.649 529.324C538.546 530.1 539.233 531.089 539.647 532.2C540.11 533.961 540.222 535.795 539.975 537.599C539.728 539.403 539.128 541.14 538.209 542.712C536.41 545.911 533.961 548.698 531.019 550.894C527.295 544.323 529.581 535.522 535.995 528.505C536.582 528.699 537.139 528.975 537.649 529.324Z" fill="white"/>
</g>
<path d="M559.88 550.204C569.371 544.711 573.915 534.832 570.047 528.131C566.178 521.43 555.336 520.48 545.859 525.974C536.383 531.467 531.825 541.331 535.693 548.033C539.561 554.734 550.403 555.683 559.88 550.204Z" fill="#FF725E"/>
<g opacity="0.2">
<path d="M559.88 550.204C569.371 544.711 573.915 534.832 570.047 528.131C566.178 521.43 555.336 520.48 545.859 525.974C536.383 531.467 531.825 541.331 535.693 548.033C539.561 554.734 550.403 555.683 559.88 550.204Z" fill="black"/>
</g>
<path d="M560.642 550.549C569.889 545.185 574.361 535.579 570.608 529.108C566.854 522.637 556.228 521.717 547.053 527.081C537.879 532.445 533.335 542.036 537.088 548.507C540.841 554.978 551.381 555.898 560.642 550.549Z" fill="#FF725E"/>
<g opacity="0.2">
<path d="M560.685 550.621C569.932 545.257 574.404 535.666 570.651 529.18C566.898 522.695 556.343 521.789 547.096 527.153C537.85 532.517 533.378 542.108 537.131 548.593C540.884 555.079 551.425 555.985 560.685 550.621Z" fill="white"/>
</g>
<path d="M559.621 541.82C560.744 541.304 561.628 540.377 562.09 539.23C562.553 538.083 562.559 536.803 562.109 535.651L564.568 534.213L563.849 532.962L562.914 532.703L563.245 533.307L561.404 534.386C560.472 533.004 559.038 532.04 557.406 531.697L555.58 533.667C556.94 533.935 558.162 534.673 559.031 535.752L554.617 538.312C553.049 536.96 551.194 535.594 548.131 537.363C545.888 538.671 544.58 540.929 545.629 543.503L543.142 544.941L543.573 545.66L542.955 546.034L543.875 546.206L546.32 544.768C546.893 545.525 547.657 546.115 548.534 546.479V546.839L549.684 546.911L549.986 546.58L551.324 545.142L551.424 545.013C551.035 544.93 550.654 544.81 550.288 544.653C549.696 544.321 549.165 543.888 548.721 543.373L553.179 540.799C554.717 542.194 556.558 543.589 559.621 541.82ZM548.031 542.122C547.846 541.615 547.857 541.056 548.062 540.557C548.266 540.057 548.65 539.651 549.138 539.419C549.594 539.151 550.129 539.048 550.652 539.127C551.175 539.205 551.656 539.461 552.014 539.85L548.031 542.122ZM558.686 539.75C558.224 540.004 557.69 540.096 557.169 540.013C556.649 539.929 556.17 539.675 555.81 539.289L559.707 537.032C559.913 537.53 559.922 538.087 559.732 538.592C559.543 539.096 559.169 539.51 558.686 539.75Z" fill="#FF725E"/>
<g opacity="0.3">
<path d="M559.621 541.82C560.744 541.304 561.628 540.377 562.09 539.23C562.553 538.083 562.559 536.803 562.109 535.651L564.568 534.213L563.849 532.962L562.914 532.703L563.245 533.307L561.404 534.386C560.472 533.004 559.038 532.04 557.406 531.697L555.58 533.667C556.94 533.935 558.162 534.673 559.031 535.752L554.617 538.312C553.049 536.96 551.194 535.594 548.131 537.363C545.888 538.671 544.58 540.929 545.629 543.503L543.142 544.941L543.573 545.66L542.955 546.034L543.875 546.206L546.32 544.768C546.893 545.525 547.657 546.115 548.534 546.479V546.839L549.684 546.911L549.986 546.58L551.324 545.142L551.424 545.013C551.035 544.93 550.654 544.81 550.288 544.653C549.696 544.321 549.165 543.888 548.721 543.373L553.179 540.799C554.717 542.194 556.558 543.589 559.621 541.82ZM548.031 542.122C547.846 541.615 547.857 541.056 548.062 540.557C548.266 540.057 548.65 539.651 549.138 539.419C549.594 539.151 550.129 539.048 550.652 539.127C551.175 539.205 551.656 539.461 552.014 539.85L548.031 542.122ZM558.686 539.75C558.224 540.004 557.69 540.096 557.169 540.013C556.649 539.929 556.17 539.675 555.81 539.289L559.707 537.032C559.913 537.53 559.922 538.087 559.732 538.592C559.543 539.096 559.169 539.51 558.686 539.75Z" fill="black"/>
</g>
<path d="M558.773 541.72C555.71 543.488 553.869 542.094 552.287 540.742L547.844 543.316C548.539 544.136 549.444 544.752 550.461 545.099L548.606 547.026C547.332 546.617 546.23 545.798 545.471 544.696L543.027 546.134L542.293 544.883L544.781 543.445C544.332 542.296 544.342 541.019 544.808 539.876C545.273 538.734 546.159 537.814 547.283 537.305C550.346 535.522 552.187 536.888 553.768 538.24L558.169 535.695C557.314 534.603 556.093 533.858 554.732 533.595L556.558 531.625C558.19 531.968 559.623 532.932 560.556 534.314L563 532.876L563.719 534.127L561.26 535.565C561.707 536.715 561.698 537.992 561.236 539.135C560.774 540.279 559.893 541.203 558.773 541.72ZM548.29 539.318C547.802 539.55 547.418 539.956 547.213 540.456C547.009 540.956 546.998 541.514 547.182 542.022L551.108 539.75C550.756 539.353 550.28 539.087 549.758 538.996C549.236 538.904 548.698 538.993 548.232 539.246L548.29 539.318ZM558.859 536.946L554.962 539.189C555.319 539.579 555.798 539.836 556.32 539.92C556.842 540.003 557.377 539.908 557.838 539.649C558.322 539.397 558.69 538.967 558.864 538.449C559.038 537.932 559.005 537.367 558.773 536.874L558.859 536.946Z" fill="#FF725E"/>
<path d="M547.815 520.667C544.621 522.63 541.604 524.868 538.799 527.354C536.177 530.015 533.795 532.903 531.681 535.982C531.999 534.92 532.484 533.915 533.119 533.005C536.017 528.436 539.998 524.653 544.709 521.99C545.667 521.386 546.716 520.939 547.815 520.667Z" fill="white"/>
<path d="M557.105 518.367C557.105 518.582 555.94 518.942 554.43 519.186C552.92 519.431 551.655 519.474 551.554 519.273C551.453 519.071 552.719 518.697 554.229 518.453C555.739 518.208 557.076 518.165 557.105 518.367Z" fill="white"/>
<path d="M549.713 537.032C549.713 537.248 548.721 537.406 547.729 538.038C546.737 538.671 546.133 539.476 545.946 539.361C545.759 539.246 546.133 538.153 547.384 537.406C548.635 536.658 549.742 536.83 549.713 537.032Z" fill="white"/>
<path d="M570.564 542.338C569.202 545.012 567.277 547.36 564.922 549.219C562.566 551.078 559.835 552.405 556.918 553.109C559.554 551.839 562.075 550.343 564.453 548.637C566.674 546.724 568.72 544.616 570.564 542.338Z" fill="white"/>
<path d="M737.408 76.3412C756.68 65.1832 765.806 44.9165 757.791 31.0743C749.777 17.2321 727.657 15.0561 708.385 26.2141C689.114 37.3722 679.988 57.6389 688.002 71.4811C696.016 85.3233 718.136 87.4992 737.408 76.3412Z" fill="#FF725E"/>
<g opacity="0.2">
<path d="M737.408 76.3412C756.68 65.1831 765.806 44.9164 757.791 31.0742C749.777 17.232 727.657 15.0561 708.385 26.2141C689.114 37.3721 679.988 57.6388 688.002 71.481C696.016 85.3232 718.136 87.4992 737.408 76.3412Z" fill="black"/>
</g>
<path d="M733.917 70.3304C753.189 59.1724 762.315 38.9057 754.301 25.0635C746.287 11.2213 724.167 9.04536 704.895 20.2034C685.623 31.3614 676.497 51.6281 684.511 65.4703C692.526 79.3125 714.646 81.4885 733.917 70.3304Z" fill="#FF725E"/>
<g opacity="0.1">
<path d="M694.761 31.5364C696.171 32.7583 697.241 34.3236 697.868 36.0805C698.607 38.8332 698.791 41.7056 698.409 44.5302C698.026 47.3547 697.084 50.0747 695.639 52.5312C692.844 57.5401 689.021 61.9015 684.422 65.3294C678.67 55.0621 682.136 41.3148 692.187 30.3716C693.102 30.6211 693.971 31.0142 694.761 31.5364Z" fill="white"/>
</g>
<path d="M729.475 64.1215C744.286 55.4935 751.39 40.1213 745.293 29.6814C739.196 19.2416 722.285 17.7029 707.517 26.2878C692.748 34.8726 685.601 50.288 691.699 60.7279C697.796 71.1677 714.663 72.6633 729.475 64.1215Z" fill="#FF725E"/>
<g opacity="0.2">
<path d="M729.475 64.1215C744.286 55.4935 751.39 40.1213 745.293 29.6814C739.196 19.2416 722.285 17.7029 707.517 26.2878C692.748 34.8726 685.601 50.288 691.699 60.7279C697.796 71.1677 714.663 72.6633 729.475 64.1215Z" fill="black"/>
</g>
<path d="M730.654 64.668C745.106 56.2988 752.08 41.3005 746.213 31.1914C740.346 21.0822 723.881 19.6873 709.429 28.0134C694.977 36.3394 688.003 51.3809 693.87 61.49C699.737 71.5991 716.202 73.0372 730.654 64.668Z" fill="#FF725E"/>
<g opacity="0.2">
<path d="M730.726 64.783C745.178 56.4139 752.138 41.4299 746.285 31.3064C740.432 21.1829 723.953 19.8024 709.501 28.1428C695.049 36.4832 688.075 51.4959 693.942 61.6194C699.809 71.7429 716.26 73.1522 730.726 64.783Z" fill="white"/>
</g>
<path d="M729.072 51.0932C732.581 49.0512 734.565 45.5138 732.955 41.4442L736.794 39.2153L735.673 37.2597L734.235 36.857L734.752 37.7917L731.876 39.4598C730.421 37.3051 728.181 35.8037 725.635 35.2752L722.759 38.3525C724.884 38.7632 726.792 39.9212 728.138 41.6168L721.264 45.6C718.791 43.4862 715.915 41.286 711.198 44.162C707.689 46.1896 705.662 49.7271 707.301 53.7535L703.418 55.9968L704.065 57.1328L703.116 57.6936L704.554 57.9668L708.379 55.7523C709.271 56.9346 710.47 57.8498 711.845 58.3982V58.9734L713.642 59.0741L714.117 58.5708L716.188 56.385L716.375 56.1981C715.76 56.0606 715.158 55.8681 714.577 55.6229C713.651 55.1061 712.823 54.4294 712.133 53.6241L719.064 49.6121C721.422 51.6253 724.298 53.811 729.072 51.0932ZM710.968 51.5534C710.686 50.7581 710.707 49.8867 711.028 49.1064C711.349 48.3261 711.948 47.6919 712.708 47.3257C714.361 46.3766 715.713 46.9661 717.022 48.0159L710.968 51.5534ZM727.605 47.8146C725.923 48.778 724.528 48.1884 723.119 47.0956L729.202 43.5725C729.519 44.3506 729.53 45.2197 729.235 46.0062C728.939 46.7926 728.357 47.4384 727.605 47.8146Z" fill="#FF725E"/>
<g opacity="0.3">
<path d="M729.072 51.0932C732.581 49.0512 734.565 45.5138 732.955 41.4442L736.794 39.2153L735.673 37.2597L734.235 36.857L734.752 37.7917L731.876 39.4598C730.421 37.3051 728.181 35.8037 725.635 35.2752L722.759 38.3525C724.884 38.7632 726.792 39.9212 728.138 41.6168L721.264 45.6C718.791 43.4862 715.915 41.286 711.198 44.162C707.689 46.1896 705.662 49.7271 707.301 53.7535L703.418 55.9968L704.065 57.1328L703.116 57.6936L704.554 57.9668L708.379 55.7523C709.271 56.9346 710.47 57.8498 711.845 58.3982V58.9734L713.642 59.0741L714.117 58.5708L716.188 56.385L716.375 56.1981C715.76 56.0606 715.158 55.8681 714.577 55.6229C713.651 55.1061 712.823 54.4294 712.133 53.6241L719.064 49.6121C721.422 51.6253 724.298 53.811 729.072 51.0932ZM710.968 51.5534C710.686 50.7581 710.707 49.8867 711.028 49.1064C711.349 48.3261 711.948 47.6919 712.708 47.3257C714.361 46.3766 715.713 46.9661 717.022 48.0159L710.968 51.5534ZM727.605 47.8146C725.923 48.778 724.528 48.1884 723.119 47.0956L729.202 43.5725C729.519 44.3506 729.53 45.2197 729.235 46.0062C728.939 46.7926 728.357 47.4384 727.605 47.8146Z" fill="black"/>
</g>
<path d="M727.663 50.777C722.889 53.5523 719.998 51.3522 717.597 49.2383L710.651 53.2647C711.737 54.5514 713.154 55.5162 714.75 56.0544L711.874 59.0455C709.849 58.4269 708.092 57.1455 706.884 55.4073L703.001 57.6218L701.88 55.6662L705.762 53.4229C704.123 49.3965 706.15 45.859 709.659 43.8171C714.448 41.0561 717.324 43.1843 719.725 45.2551L726.613 41.2718C725.269 39.5752 723.361 38.417 721.235 38.0075L724.111 34.9158C726.656 35.4564 728.892 36.9612 730.352 39.1148L734.163 36.9147L735.299 38.8703L731.445 41.0992C733.199 45.2119 731.172 48.7494 727.663 50.777ZM711.298 47.0238C710.534 47.385 709.932 48.0187 709.61 48.8007C709.288 49.5827 709.27 50.4567 709.558 51.2515L715.684 47.6997C714.304 46.6499 712.952 46.0603 711.298 47.0238ZM727.792 43.3137L721.695 46.7793C723.133 47.8722 724.499 48.4618 726.182 47.484C726.923 47.1164 727.5 46.4842 727.798 45.7122C728.096 44.9401 728.094 44.0843 727.792 43.3137Z" fill="#FF725E"/>
<path d="M710.637 18.0192C710.637 18.1343 708.926 19.0258 706.222 20.7083C699.168 25.1019 693.082 30.885 688.334 37.7055C686.507 40.3226 685.544 42.0195 685.458 42.0195C685.589 41.5708 685.778 41.1407 686.018 40.7396C686.421 39.9344 687.068 38.8127 687.931 37.461C690.198 33.9301 692.882 30.6855 695.926 27.7976C698.971 24.9038 702.35 22.3839 705.992 20.2913C707.084 19.6456 708.212 19.0646 709.372 18.5513C709.767 18.3171 710.193 18.1381 710.637 18.0192Z" fill="white"/>
<path d="M725.146 14.4242C723.808 15.0204 722.379 15.3851 720.919 15.5027C719.509 15.8543 718.051 15.9661 716.605 15.8335C717.943 15.2373 719.372 14.8726 720.832 14.755C722.242 14.4034 723.7 14.2916 725.146 14.4242Z" fill="white"/>
<path d="M713.585 43.5725C713.585 43.7882 712.003 43.9464 710.393 45.0105C708.782 46.0747 707.905 47.3688 707.718 47.2538C707.531 47.1388 708.164 45.4994 709.99 44.3778C710.49 43.981 711.072 43.7024 711.695 43.563C712.318 43.4235 712.964 43.4268 713.585 43.5725Z" fill="white"/>
<path d="M746.141 51.8554C745.609 53.1131 744.902 54.2895 744.042 55.3498C740.122 60.6948 734.823 64.8747 728.713 67.4433C727.479 68.036 726.167 68.4476 724.816 68.6656C724.816 68.5506 726.254 68.0329 728.497 66.9544C731.42 65.5558 734.183 63.8442 736.737 61.8495C739.27 59.8298 741.579 57.5448 743.625 55.0334C745.207 53.0921 746.055 51.7835 746.141 51.8554Z" fill="white"/>
<path d="M682.51 38.9134L684.178 41.9332L687.212 43.6013L684.178 45.255L682.51 48.2892L680.856 45.255L677.822 43.6013L680.856 41.9332L682.51 38.9134Z" fill="white"/>
<path d="M596.204 382.749C595.173 382.263 594.168 381.723 593.193 381.132C590.835 379.751 588.338 378.623 585.742 377.767C583.142 376.939 580.385 376.723 577.688 377.136C576.585 377.355 575.499 377.652 574.438 378.024C574.679 377.83 574.948 377.674 575.237 377.562C576 377.21 576.802 376.948 577.626 376.781C580.375 376.255 583.212 376.429 585.876 377.287C588.506 378.155 591.018 379.348 593.353 380.839C594.241 381.39 594.978 381.852 595.467 382.18C595.735 382.339 595.982 382.53 596.204 382.749Z" fill="white"/>
<path d="M597.722 401.042C596.943 401.064 596.163 401.038 595.387 400.962C594.607 401.032 593.824 401.047 593.042 401.007C593.752 400.599 594.571 400.422 595.387 400.501C596.203 400.426 597.022 400.616 597.722 401.042Z" fill="white"/>
<path d="M660.684 339.816C666.382 306.024 643.607 274.013 609.816 268.316C576.024 262.618 544.013 285.393 538.316 319.184C532.618 352.976 555.393 384.987 589.184 390.684C622.976 396.382 654.987 373.607 660.684 339.816Z" fill="#FF725E"/>
<path d="M644.46 340.149C642.117 349.178 637.15 357.309 630.186 363.515C623.222 369.72 614.575 373.722 605.337 375.013C596.099 376.304 586.685 374.827 578.287 370.769C569.888 366.71 562.882 360.253 558.153 352.212C553.424 344.172 551.186 334.91 551.721 325.598C552.256 316.285 555.541 307.341 561.159 299.895C566.777 292.449 574.477 286.836 583.285 283.766C592.093 280.696 601.614 280.307 610.643 282.648C616.64 284.202 622.271 286.923 627.216 290.654C632.161 294.385 636.322 299.054 639.463 304.394C642.603 309.733 644.66 315.639 645.518 321.774C646.375 327.909 646.016 334.153 644.46 340.149Z" fill="#FF725E"/>
<g opacity="0.2">
<path d="M644.46 340.149C642.117 349.178 637.15 357.309 630.186 363.515C623.222 369.72 614.575 373.722 605.337 375.013C596.099 376.304 586.685 374.827 578.287 370.769C569.888 366.71 562.882 360.253 558.153 352.212C553.424 344.172 551.186 334.91 551.721 325.598C552.256 316.285 555.541 307.341 561.159 299.895C566.777 292.449 574.477 286.836 583.285 283.766C592.093 280.696 601.614 280.307 610.643 282.648C616.64 284.202 622.271 286.923 627.216 290.654C632.161 294.385 636.322 299.054 639.463 304.394C642.603 309.733 644.66 315.639 645.518 321.774C646.375 327.909 646.016 334.153 644.46 340.149Z" fill="black"/>
</g>
<path d="M645.259 342.387C642.947 351.296 638.044 359.319 631.171 365.441C624.298 371.563 615.763 375.51 606.647 376.781C597.531 378.053 588.243 376.593 579.957 372.585C571.671 368.577 564.76 362.202 560.097 354.266C555.435 346.33 553.23 337.189 553.763 328C554.296 318.811 557.542 309.987 563.09 302.643C568.639 295.299 576.241 289.765 584.934 286.742C593.628 283.719 603.023 283.342 611.931 285.658C623.872 288.764 634.091 296.484 640.341 307.122C646.59 317.76 648.36 330.445 645.259 342.387Z" fill="#FF725E"/>
<g opacity="0.2">
<path d="M645.259 342.387C642.947 351.296 638.044 359.319 631.171 365.441C624.298 371.563 615.763 375.51 606.647 376.781C597.531 378.053 588.243 376.593 579.957 372.585C571.671 368.577 564.76 362.202 560.097 354.266C555.435 346.33 553.23 337.189 553.763 328C554.296 318.811 557.542 309.987 563.09 302.643C568.639 295.299 576.241 289.765 584.934 286.742C593.628 283.719 603.023 283.342 611.931 285.658C623.872 288.764 634.091 296.484 640.341 307.122C646.59 317.76 648.36 330.445 645.259 342.387Z" fill="white"/>
</g>
<path d="M603.051 327.29L606.043 315.745H606.097C608.134 316.548 610.054 317.621 611.807 318.933C612.682 319.714 613.487 320.57 614.213 321.491L614.453 321.171L617.259 317.521L617.916 316.633L616.416 313.969L615.314 314.156C613.074 312.126 610.446 310.57 607.588 309.582L609.267 303.224L607.704 301.128L607.295 302.718L604.631 302.016L602.962 308.463C593.824 307.016 588.282 311.003 586.773 316.829C584.721 324.759 590.982 328.578 596.914 331.766L593.957 343.186C589.904 341.777 586.334 339.246 583.664 335.886L579.597 340.984C581.897 344.323 586.853 347.555 592.358 349.349L591.115 354.136L588.877 353.603L590.618 355.707L595.298 356.924L596.959 350.53C606.159 351.933 611.744 348.026 613.254 342.2C615.35 334.243 608.956 330.451 603.051 327.29ZM598.61 324.857C595.555 323.027 593.424 321.136 594.17 318.392C594.818 315.879 597.065 314.271 601.274 314.689L598.61 324.857ZM598.61 344.287L601.274 334.181C604.445 336.037 606.603 338 605.892 340.797C605.208 343.275 602.935 344.74 598.61 344.287Z" fill="#FF725E"/>
<g opacity="0.3">
<path d="M603.051 327.29L606.043 315.745H606.097C608.134 316.548 610.054 317.621 611.807 318.933C612.682 319.714 613.487 320.57 614.213 321.491L614.453 321.171L617.259 317.521L617.916 316.633L616.416 313.969L615.314 314.156C613.074 312.126 610.446 310.57 607.588 309.582L609.267 303.224L607.704 301.128L607.295 302.718L604.631 302.016L602.962 308.463C593.824 307.016 588.282 311.003 586.773 316.829C584.721 324.759 590.982 328.578 596.914 331.766L593.957 343.186C589.904 341.777 586.334 339.246 583.664 335.886L579.597 340.984C581.897 344.323 586.853 347.555 592.358 349.349L591.115 354.136L588.877 353.603L590.618 355.707L595.298 356.924L596.959 350.53C606.159 351.933 611.744 348.026 613.254 342.2C615.35 334.243 608.956 330.451 603.051 327.29ZM598.61 324.857C595.555 323.027 593.424 321.136 594.17 318.392C594.818 315.879 597.065 314.271 601.274 314.689L598.61 324.857ZM598.61 344.287L601.274 334.181C604.445 336.037 606.603 338 605.892 340.797C605.208 343.275 602.935 344.74 598.61 344.287Z" fill="black"/>
</g>
<path d="M595.467 348.443L593.806 354.837L589.126 353.621L590.769 347.289C585.254 345.513 580.308 342.254 577.999 338.914L582.066 333.817C584.741 337.175 588.313 339.706 592.367 341.117L595.324 329.697C589.383 326.508 583.123 322.69 585.183 314.751C586.693 308.925 592.234 304.982 601.363 306.394L603.05 299.938L607.731 301.155L606.088 307.495C610.127 308.733 613.792 310.965 616.744 313.987L612.908 319.147C610.503 316.748 607.623 314.879 604.454 313.658L601.461 325.203C607.402 328.391 613.796 332.183 611.736 340.122C610.253 345.939 604.667 349.855 595.467 348.443ZM597.118 322.788L599.782 312.619C595.564 312.193 593.317 313.809 592.678 316.323C591.923 319.058 594.055 320.958 597.118 322.788ZM604.32 338.728C605.049 335.931 602.873 333.968 599.694 332.112L597.074 342.218C601.408 342.671 603.681 341.188 604.32 338.728Z" fill="#FF725E"/>
<path d="M587.59 375.982L587.971 376.044L589.082 376.248L590.858 376.594C591.668 376.779 592.49 376.907 593.318 376.976L596.417 377.278C597.007 377.339 597.6 377.36 598.193 377.34H600.12C600.807 377.361 601.495 377.346 602.18 377.296L604.365 377.074C605.111 376.985 605.892 376.959 606.674 376.816L609.08 376.337C612.652 375.58 616.131 374.433 619.453 372.918L622.117 371.515C622.561 371.275 623.005 371.053 623.467 370.795L624.772 369.907C625.66 369.321 626.548 368.78 627.436 368.131L629.994 366.08L630.642 365.565L631.246 364.988L632.463 363.815C632.862 363.416 633.271 363.025 633.688 362.625C634.106 362.226 634.443 361.737 634.825 361.329C635.562 360.441 636.352 359.553 637.072 358.665L639.105 355.725C644.549 347.32 647.128 337.379 646.458 327.388C646.334 326.189 646.219 324.999 646.103 323.835C645.988 322.672 645.659 321.527 645.455 320.39C645.322 319.83 645.259 319.253 645.082 318.703C644.904 318.152 644.753 317.61 644.584 317.069C644.416 316.527 644.256 315.994 644.096 315.452C644.016 315.186 643.945 314.92 643.847 314.653L643.537 313.889C643.11 312.868 642.702 311.856 642.293 310.861C641.885 309.867 641.308 308.952 640.837 308.019L640.109 306.643C639.842 306.199 639.549 305.755 639.274 305.355L637.684 302.842C635.518 299.913 633.034 297.233 630.278 294.85L628.413 293.26C627.8 292.754 627.134 292.372 626.522 291.91L624.746 290.658C624.168 290.232 623.538 289.956 622.969 289.61L621.282 288.678C620.775 288.369 620.247 288.096 619.701 287.861L616.833 286.617C616.076 286.268 615.296 285.971 614.497 285.729L612.766 285.161L611.7 284.806L611.336 284.664L611.709 284.761L612.792 285.072L614.568 285.605C615.375 285.818 616.165 286.091 616.931 286.422L619.817 287.639C620.372 287.864 620.91 288.131 621.424 288.438L623.12 289.326C623.698 289.663 624.337 289.939 624.896 290.356L626.717 291.608C627.339 292.043 628.014 292.496 628.626 292.958L630.518 294.539C633.312 296.935 635.829 299.637 638.022 302.593L639.691 305.115C639.967 305.542 640.269 306.004 640.535 306.412C640.801 306.821 641.023 307.3 641.272 307.797C641.752 308.739 642.302 309.671 642.746 310.657L644.016 313.712L644.336 314.484C644.425 314.751 644.496 315.017 644.584 315.292C644.753 315.834 644.913 316.376 645.082 316.918C645.251 317.459 645.419 318.019 645.579 318.569C645.739 319.12 645.828 319.697 645.961 320.266C646.183 321.42 646.449 322.566 646.627 323.747C646.805 324.928 646.867 326.127 646.991 327.299C647.656 337.424 645.013 347.49 639.46 355.983L637.4 358.949C636.681 359.89 635.882 360.725 635.136 361.657C634.772 362.113 634.383 362.549 633.972 362.963L632.738 364.162C632.321 364.552 631.912 364.952 631.512 365.343C631.308 365.538 631.113 365.742 630.9 365.92L630.243 366.444L627.658 368.495C626.77 369.144 625.882 369.694 624.994 370.272L623.671 371.16C623.227 371.417 622.783 371.639 622.303 371.888L619.639 373.282C616.285 374.797 612.774 375.934 609.169 376.674L606.754 377.136C605.963 377.278 605.173 377.305 604.427 377.385L602.225 377.589C601.533 377.629 600.839 377.629 600.147 377.589H598.211C597.618 377.599 597.024 377.572 596.435 377.509L593.318 377.163C592.488 377.084 591.666 376.941 590.858 376.736L589.082 376.346L587.954 376.133L587.59 375.982Z" fill="#263238"/>
<path d="M587.847 320.541C587.383 320.08 587.044 319.508 586.861 318.88C586.297 317.388 586.237 315.752 586.693 314.223C587.149 312.694 588.094 311.357 589.383 310.417C589.877 309.98 590.472 309.675 591.115 309.529C591.115 309.6 590.467 309.893 589.579 310.639C588.431 311.611 587.584 312.889 587.137 314.324C586.708 315.773 586.708 317.316 587.137 318.765C587.501 319.884 587.954 320.496 587.847 320.541Z" fill="white"/>
<path d="M592.056 388.361C591.676 388.403 591.292 388.403 590.911 388.361C590.174 388.361 589.135 388.263 587.794 388.104C584.378 387.664 581.024 386.839 577.794 385.644C574.567 384.441 571.489 382.87 568.621 380.964C567.528 380.227 566.667 379.596 566.099 379.125C565.776 378.903 565.478 378.647 565.211 378.362C565.554 378.532 565.878 378.737 566.179 378.974C566.774 379.401 567.662 379.996 568.772 380.688C574.569 384.333 581.052 386.751 587.82 387.793C589.108 387.997 590.165 388.13 590.893 388.201C591.285 388.215 591.675 388.268 592.056 388.361Z" fill="white"/>
<path d="M659.575 345.051C659.575 345.051 659.637 344.713 659.779 344.056C659.921 343.399 660.17 342.449 660.383 341.17C661.61 334.76 661.805 328.194 660.96 321.722C660.566 318.498 659.91 315.311 658.997 312.193C656.753 304.579 653.083 297.461 648.181 291.217C645.332 287.607 642.085 284.33 638.501 281.449C634.63 278.298 630.382 275.64 625.856 273.536C618.458 270.095 610.463 268.122 602.313 267.729C599.447 267.611 596.575 267.679 593.717 267.933C581.512 269.096 569.926 273.852 560.424 281.6C557.946 283.608 555.633 285.812 553.506 288.189C551.323 290.583 549.347 293.159 547.601 295.889C540.351 307.099 536.924 320.355 537.832 333.675C537.912 335.309 538.134 336.916 538.33 338.533C538.525 340.149 538.862 341.721 539.218 343.284C539.921 346.394 540.871 349.444 542.059 352.404C546.592 363.778 554.391 373.555 564.474 380.502C566.849 382.113 569.326 383.569 571.889 384.862C574.393 386.101 576.977 387.172 579.624 388.068C584.692 389.797 589.964 390.86 595.307 391.229C604.931 391.904 614.579 390.31 623.476 386.576C630.782 383.487 637.436 379.039 643.084 373.468C645.402 371.191 647.532 368.729 649.451 366.107C651.082 363.91 652.565 361.608 653.891 359.215C655.709 355.895 657.225 352.417 658.42 348.825C658.855 347.609 659.077 346.641 659.308 346.01C659.539 345.38 659.61 345.051 659.61 345.051C659.61 345.051 659.299 346.374 658.527 348.861C656.524 355.095 653.525 360.964 649.646 366.24C647.731 368.879 645.601 371.356 643.279 373.646C637.612 379.261 630.923 383.74 623.573 386.842C614.646 390.602 604.962 392.22 595.298 391.567C587.109 390.993 579.109 388.83 571.747 385.2C569.166 383.901 566.672 382.439 564.278 380.822C554.118 373.833 546.256 363.991 541.686 352.537C540.488 349.554 539.529 346.481 538.818 343.346C538.427 341.774 538.17 340.167 537.93 338.559C537.69 336.952 537.513 335.318 537.424 333.675C536.508 320.251 539.974 306.891 547.299 295.604C549.06 292.854 551.05 290.258 553.249 287.843C563.699 276.219 578.138 268.95 593.699 267.48C596.578 267.222 599.47 267.154 602.358 267.276C605.165 267.411 607.959 267.735 610.723 268.244C616.019 269.204 621.167 270.855 626.033 273.155C634.797 277.279 642.475 283.395 648.456 291.013C653.355 297.325 657.005 304.514 659.211 312.193C660.876 317.965 661.701 323.947 661.662 329.954C661.626 333.748 661.23 337.531 660.48 341.25C659.948 343.772 659.575 345.051 659.575 345.051Z" fill="#263238"/>
<path d="M385.657 66.5717C372.816 61.7544 352.022 61.8262 329.489 66.9887C306.956 72.1511 288.204 81.1242 278.728 91.0608L269.093 93.2753L272.415 107.756C276.01 123.459 307.171 129.714 342.028 121.733C376.886 113.752 402.223 94.5551 398.628 78.8666L395.306 64.3715L385.657 66.5717Z" fill="#FF725E"/>
<g opacity="0.3">
<path d="M385.657 66.5717C372.816 61.7544 352.022 61.8262 329.489 66.9887C306.956 72.1511 288.204 81.1242 278.728 91.0608L269.093 93.2753L272.415 107.756C276.01 123.459 307.171 129.714 342.028 121.733C376.886 113.752 402.223 94.5551 398.628 78.8666L395.306 64.3715L385.657 66.5717Z" fill="black"/>
</g>
<path d="M338.937 108.274C304.094 116.255 272.918 109.999 269.337 94.3251C265.757 78.6509 291.08 59.4536 325.937 51.4727C360.794 43.4918 391.956 49.7327 395.551 65.4213C399.146 81.1099 373.794 100.307 338.937 108.274Z" fill="#FF725E"/>
<g opacity="0.1">
<path d="M300.542 79.2692C307.121 80.5401 313.781 81.3473 320.473 81.685C344.171 82.0158 367.754 71.1445 381.559 52.206C368.502 47.0867 347.967 46.454 325.937 51.487C304.842 56.3187 287.255 65.2487 277.434 75.0271C285.098 76.6377 292.791 78.0756 300.542 79.2692Z" fill="white"/>
</g>
<path d="M337.484 96.5252C310.694 102.651 287.859 102.421 285.443 91.8949C282.883 80.7072 301.951 64.501 328.741 58.3607C355.531 52.2205 379.201 55.8011 381.602 66.3416C382.206 68.9156 382.839 71.7341 379.46 77.3136C374.139 86.1285 357.688 91.8949 337.484 96.5252Z" fill="#FF725E"/>
<g opacity="0.3">
<path d="M337.484 96.5252C310.694 102.651 287.859 102.421 285.443 91.8949C282.883 80.7072 301.951 64.501 328.741 58.3607C355.531 52.2205 379.201 55.8011 381.602 66.3416C382.206 68.9156 382.839 71.7341 379.46 77.3136C374.139 86.1285 357.688 91.8949 337.484 96.5252Z" fill="black"/>
</g>
<path d="M337.369 101.084C311.226 107.066 288.075 103.384 285.601 92.8439C283.128 82.3033 302.426 68.9156 328.569 62.9335C354.712 56.9514 377.849 60.6327 380.337 71.1732C382.824 81.7138 363.44 95.1591 337.369 101.084Z" fill="#FF725E"/>
<g opacity="0.2">
<path d="M337.369 101.084C311.226 107.066 288.075 103.384 285.601 92.8439C283.128 82.3033 302.426 68.9156 328.569 62.9335C354.712 56.9514 377.849 60.6327 380.337 71.1732C382.824 81.7138 363.44 95.1591 337.369 101.084Z" fill="white"/>
</g>
<path d="M338.059 82.5047L349.664 79.6287C349.704 81.0374 349.465 82.4402 348.96 83.7557C348.557 84.5318 348.075 85.2642 347.522 85.9415H347.895L352.353 86.0134H353.374L355.244 84.2303L354.64 83.7414C355.606 81.9872 356.021 79.983 355.833 77.9894L362.218 76.4363L363.526 74.8545L361.93 75.2428L361.528 73.5891L355.028 75.1709C352.842 69.9365 347.09 68.6136 341.223 70.0372C333.228 71.9785 332.164 76.6233 331.545 80.8654L320.113 83.8276C319.954 80.9036 320.915 78.0288 322.802 75.7892L316.605 75.6454C315.506 76.9849 314.698 78.5384 314.233 80.207C313.767 81.8756 313.654 83.6229 313.901 85.3375L309.084 86.5023L308.71 85.1506L307.516 86.8906L308.207 89.7666L314.649 88.1991C316.906 93.4478 322.601 94.8283 328.468 93.4047C336.449 91.449 337.441 86.7036 338.059 82.5047ZM338.563 79.3555C339.052 77.0978 340.001 75.2859 342.719 74.6101C345.249 74.0061 347.579 74.5382 348.816 76.8677L338.563 79.3555ZM320.919 86.6749L331.1 84.1871C330.625 86.5167 329.662 88.3717 326.857 89.062C325.75 89.4593 324.536 89.4389 323.442 89.0048C322.349 88.5706 321.452 87.7524 320.919 86.7036V86.6749Z" fill="#FF725E"/>
<g opacity="0.3">
<path d="M338.059 82.5047L349.664 79.6287C349.704 81.0374 349.465 82.4402 348.96 83.7557C348.557 84.5318 348.075 85.2642 347.522 85.9415H347.895L352.353 86.0134H353.374L355.244 84.2303L354.64 83.7414C355.606 81.9872 356.021 79.983 355.833 77.9894L362.218 76.4363L363.526 74.8545L361.93 75.2428L361.528 73.5891L355.028 75.1709C352.842 69.9365 347.09 68.6136 341.223 70.0372C333.228 71.9785 332.164 76.6233 331.545 80.8654L320.113 83.8276C319.954 80.9036 320.915 78.0288 322.802 75.7892L316.605 75.6454C315.506 76.9849 314.698 78.5384 314.233 80.207C313.767 81.8756 313.654 83.6229 313.901 85.3375L309.084 86.5023L308.71 85.1506L307.516 86.8906L308.207 89.7666L314.649 88.1991C316.906 93.4478 322.601 94.8283 328.468 93.4047C336.449 91.449 337.441 86.7036 338.059 82.5047ZM338.563 79.3555C339.052 77.0978 340.001 75.2859 342.719 74.6101C345.249 74.0061 347.579 74.5382 348.816 76.8677L338.563 79.3555ZM320.919 86.6749L331.1 84.1871C330.625 86.5167 329.662 88.3717 326.857 89.062C325.75 89.4593 324.536 89.4389 323.442 89.0048C322.349 88.5706 321.452 87.7524 320.919 86.7036V86.6749Z" fill="black"/>
</g>
<path d="M315.598 85.5676L309.069 86.7324L308.552 83.8564L315.023 82.706C314.885 80.9767 315.107 79.2376 315.677 77.5989C316.246 75.9602 317.15 74.4576 318.33 73.1864L324.499 73.7328C322.47 75.8441 321.332 78.6559 321.321 81.5843L333.055 79.5136C333.932 75.3146 335.284 70.7418 343.38 69.3038C349.333 68.2397 354.985 69.9222 356.84 75.2715L363.426 74.1067L363.944 76.9827L357.473 78.1331C357.68 80.9246 356.874 83.6974 355.2 85.9415L349.046 85.5388C350.362 83.7014 351.103 81.5141 351.174 79.2548L339.397 81.3542C338.52 85.5532 337.24 90.1836 329.144 91.6359C323.119 92.6857 317.525 91.0176 315.598 85.5676ZM327.735 87.1925C330.611 86.6892 331.66 84.8917 332.279 82.5909L321.954 84.4316C322.414 85.5184 323.256 86.3992 324.321 86.9078C325.386 87.4165 326.6 87.5177 327.735 87.1925ZM340.044 78.2338L350.412 76.3788C349.333 73.9917 347.047 73.3014 344.473 73.7616C341.683 74.2649 340.662 76.0049 340.044 78.2338Z" fill="#FF725E"/>
<path d="M376.9 82.1309C376.724 82.3294 376.526 82.5079 376.31 82.6629L374.556 84.1009C373.794 84.7049 372.845 85.4382 371.68 86.2291C370.515 87.02 369.264 87.9691 367.783 88.8895C360.121 93.8994 351.715 97.6656 342.877 100.048C334.024 102.319 324.937 103.544 315.799 103.701C312.291 103.701 309.458 103.701 307.516 103.701L305.259 103.615C304.997 103.624 304.735 103.594 304.482 103.528C304.74 103.497 305.001 103.497 305.259 103.528H307.516C309.458 103.528 312.291 103.442 315.77 103.327C324.849 103.017 333.866 101.715 342.661 99.4444C351.472 97.0441 359.868 93.3256 367.567 88.4149C369.005 87.5234 370.371 86.6318 371.522 85.8553C372.672 85.0788 373.65 84.4173 374.398 83.8277L376.238 82.5335C376.436 82.3648 376.659 82.2289 376.9 82.1309Z" fill="#263238"/>
<path d="M323.924 110.92C323.135 111.102 322.331 111.212 321.523 111.25C319.97 111.394 317.726 111.567 314.937 111.667C307.667 112.01 300.382 111.61 293.194 110.474C289.245 109.847 285.384 108.756 281.69 107.224C278.618 105.989 275.822 104.156 273.465 101.831C271.893 100.246 270.678 98.3439 269.898 96.2519C269.688 95.6852 269.52 95.1036 269.395 94.5119C269.309 94.1093 269.28 93.908 269.309 93.8936C269.338 93.8792 269.568 94.7276 270.172 96.1369C271.03 98.1356 272.276 99.9441 273.839 101.457C276.195 103.664 278.946 105.406 281.949 106.591C285.652 108.072 289.512 109.128 293.453 109.74C300.586 110.863 307.804 111.344 315.023 111.178C317.798 111.178 320.056 111.049 321.609 110.977C322.378 110.9 323.152 110.881 323.924 110.92Z" fill="#263238"/>
<path d="M290.879 67.3481C289.563 68.5181 288.175 69.6035 286.723 70.598C283.297 73.0752 280.14 75.9043 277.304 79.0391C274.515 82.1947 272.488 85.9485 271.379 90.011C271.028 91.7246 270.783 93.4583 270.646 95.2022C270.518 94.7343 270.464 94.2489 270.488 93.7642C270.465 92.46 270.59 91.1574 270.862 89.8816C271.843 85.6676 273.865 81.7667 276.743 78.5358C279.607 75.3541 282.853 72.5382 286.407 70.1523C287.758 69.2176 288.866 68.4986 289.628 68.0096C290.013 67.7335 290.434 67.511 290.879 67.3481Z" fill="white"/>
<path d="M317.697 76.6376C317.266 77.7647 316.747 78.8562 316.144 79.9019C315.746 81.0472 315.266 82.1622 314.706 83.238C314.538 81.9792 314.791 80.7 315.425 79.5999C316.303 77.7017 317.554 76.5226 317.697 76.6376Z" fill="white"/>
<path d="M281.676 115.464C279.693 114.748 277.925 113.54 276.539 111.953C275.153 110.365 274.194 108.451 273.752 106.39C274.745 108.161 275.864 109.857 277.103 111.466C278.531 112.905 280.059 114.24 281.676 115.464Z" fill="white"/>
<path d="M283.861 89.7953L285.113 92.0817L287.413 93.3471L285.113 94.5982L283.861 96.8846L282.61 94.5982L280.324 93.3471L282.61 92.0817L283.861 89.7953Z" fill="white"/>
</g>
<defs>
<filter id="filter0_f_54_712" x="0" y="10.0733" width="1353.76" height="555.541" filterUnits="userSpaceOnUse" color-interpolation-filters="sRGB">
<feFlood flood-opacity="0" result="BackgroundImageFix"/>
<feBlend mode="normal" in="SourceGraphic" in2="BackgroundImageFix" result="shape"/>
<feGaussianBlur stdDeviation="1.5" result="effect1_foregroundBlur_54_712"/>
</filter>
</defs>
</svg>
