<svg xmlns="http://www.w3.org/2000/svg" xmlns:xlink="http://www.w3.org/1999/xlink" version="1.1" width="256" height="256" viewBox="0 0 256 256" xml:space="preserve">

<defs>
</defs>
<g style="stroke: none; stroke-width: 0; stroke-dasharray: none; stroke-linecap: butt; stroke-linejoin: miter; stroke-miterlimit: 10; fill: none; fill-rule: nonzero; opacity: 1;" transform="translate(1.4065934065934016 1.4065934065934016) scale(2.81 2.81)" >
	<path d="M 70.257 89 H 19.743 C 9.392 89 1 80.608 1 70.257 V 19.743 C 1 9.392 9.392 1 19.743 1 h 50.513 C 80.608 1 89 9.392 89 19.743 v 50.513 C 89 80.608 80.608 89 70.257 89 z" style="stroke: none; stroke-width: 1; stroke-dasharray: none; stroke-linecap: butt; stroke-linejoin: miter; stroke-miterlimit: 10; fill: rgb(255,150,113); fill-rule: nonzero; opacity: 1;" transform=" matrix(1 0 0 1 0 0) " stroke-linecap="round" />
	<path d="M 70.257 90 H 19.744 C 8.857 90 0 81.144 0 70.257 V 19.744 C 0 8.857 8.857 0 19.744 0 h 50.513 C 81.144 0 90 8.857 90 19.744 v 50.513 C 90 81.144 81.144 90 70.257 90 z M 19.744 2 C 9.96 2 2 9.96 2 19.744 v 50.513 C 2 80.04 9.96 88 19.744 88 h 50.513 C 80.04 88 88 80.04 88 70.257 V 19.744 C 88 9.96 80.04 2 70.257 2 H 19.744 z" style="stroke: none; stroke-width: 1; stroke-dasharray: none; stroke-linecap: butt; stroke-linejoin: miter; stroke-miterlimit: 10; fill: rgb(255,150,113); fill-rule: nonzero; opacity: 1;" transform=" matrix(1 0 0 1 0 0) " stroke-linecap="round" />
	<path d="M 72.371 29.915 c -2.52 -4.32 -7.496 -6.573 -12.406 -5.618 l -9.469 1.843 c -1.815 0.353 -3.655 0.53 -5.496 0.53 s -3.681 -0.177 -5.496 -0.53 l -9.469 -1.843 c -4.909 -0.956 -9.886 1.297 -12.406 5.618 c -6.9 11.831 -8.328 36.005 0.789 36.005 c 4.018 0 6.869 -0.995 10.254 -4.187 C 33.89 56.772 38.193 54.791 45 54.45 c 6.807 0.342 11.11 2.322 16.328 7.284 c 3.384 3.192 6.236 4.187 10.254 4.187 C 80.699 65.92 79.271 41.746 72.371 29.915 z" style="stroke: none; stroke-width: 1; stroke-dasharray: none; stroke-linecap: butt; stroke-linejoin: miter; stroke-miterlimit: 10; fill: rgb(56,69,79); fill-rule: nonzero; opacity: 1;" transform=" matrix(1 0 0 1 0 0) " stroke-linecap="round" />
	<path d="M 71.582 66.92 c -4.471 0 -7.538 -1.25 -10.94 -4.459 C 55.55 57.62 51.452 55.783 45 55.451 c -6.453 0.332 -10.55 2.169 -15.64 7.007 c -3.404 3.212 -6.471 4.462 -10.942 4.462 c -2.18 0 -4 -1.164 -5.265 -3.365 c -4.006 -6.975 -2.184 -24.207 3.612 -34.144 c 2.73 -4.681 8.141 -7.13 13.46 -6.095 l 9.469 1.843 c 3.487 0.679 7.122 0.679 10.61 0 l 9.469 -1.843 c 5.314 -1.037 10.73 1.413 13.461 6.095 c 0.001 0 0.001 0 0.001 0 c 5.795 9.937 7.618 27.168 3.611 34.144 C 75.582 65.756 73.762 66.92 71.582 66.92 z M 45 53.45 c 0.017 0 0.033 0 0.05 0.001 c 6.939 0.348 11.537 2.396 16.968 7.558 c 3.021 2.851 5.615 3.911 9.564 3.911 c 1.463 0 2.618 -0.772 3.53 -2.361 c 3.651 -6.355 1.798 -22.876 -3.605 -32.14 c -2.303 -3.948 -6.862 -6.014 -11.351 -5.14 l -9.469 1.843 c -3.74 0.729 -7.636 0.729 -11.375 0 l -9.468 -1.843 c -4.489 -0.873 -9.049 1.192 -11.351 5.14 c -5.403 9.264 -7.256 25.784 -3.605 32.14 c 0.913 1.589 2.067 2.361 3.53 2.361 c 3.95 0 6.543 -1.061 9.567 -3.914 c 5.427 -5.159 10.025 -7.207 16.965 -7.555 C 44.967 53.45 44.983 53.45 45 53.45 z" style="stroke: none; stroke-width: 1; stroke-dasharray: none; stroke-linecap: butt; stroke-linejoin: miter; stroke-miterlimit: 10; fill: rgb(255,150,113); fill-rule: nonzero; opacity: 1;" transform=" matrix(1 0 0 1 0 0) " stroke-linecap="round" />
	<path d="M 53.407 44.381 c -1.675 0 -3.034 -1.358 -3.034 -3.034 c 0 -1.675 1.358 -3.034 3.034 -3.034 c 1.675 0 3.034 1.358 3.034 3.034 C 56.441 43.022 55.082 44.381 53.407 44.381 z" style="stroke: none; stroke-width: 1; stroke-dasharray: none; stroke-linecap: butt; stroke-linejoin: miter; stroke-miterlimit: 10; fill: rgb(117,139,222); fill-rule: nonzero; opacity: 1;" transform=" matrix(1 0 0 1 0 0) " stroke-linecap="round" />
	<path d="M 59.991 50.964 c -1.675 0 -3.034 -1.358 -3.034 -3.034 c 0 -1.675 1.358 -3.034 3.034 -3.034 c 1.675 0 3.034 1.358 3.034 3.034 C 63.025 49.606 61.666 50.964 59.991 50.964 z" style="stroke: none; stroke-width: 1; stroke-dasharray: none; stroke-linecap: butt; stroke-linejoin: miter; stroke-miterlimit: 10; fill: rgb(90,210,113); fill-rule: nonzero; opacity: 1;" transform=" matrix(1 0 0 1 0 0) " stroke-linecap="round" />
	<path d="M 59.991 37.797 c -1.675 0 -3.034 -1.358 -3.034 -3.034 c 0 -1.675 1.358 -3.033 3.034 -3.033 c 1.675 0 3.034 1.358 3.034 3.033 C 63.025 36.439 61.666 37.797 59.991 37.797 z" style="stroke: none; stroke-width: 1; stroke-dasharray: none; stroke-linecap: butt; stroke-linejoin: miter; stroke-miterlimit: 10; fill: rgb(251,198,22); fill-rule: nonzero; opacity: 1;" transform=" matrix(1 0 0 1 0 0) " stroke-linecap="round" />
	<path d="M 66.575 44.381 c -1.675 0 -3.034 -1.358 -3.034 -3.034 c 0 -1.675 1.358 -3.034 3.034 -3.034 c 1.675 0 3.034 1.358 3.034 3.034 C 69.608 43.022 68.25 44.381 66.575 44.381 z" style="stroke: none; stroke-width: 1; stroke-dasharray: none; stroke-linecap: butt; stroke-linejoin: miter; stroke-miterlimit: 10; fill: rgb(215,90,74); fill-rule: nonzero; opacity: 1;" transform=" matrix(1 0 0 1 0 0) " stroke-linecap="round" />
	<path d="M 53.407 45.38 c -2.224 0 -4.033 -1.809 -4.033 -4.033 s 1.81 -4.034 4.033 -4.034 s 4.033 1.81 4.033 4.034 S 55.631 45.38 53.407 45.38 z M 53.407 39.313 c -1.121 0 -2.033 0.912 -2.033 2.034 c 0 1.121 0.912 2.033 2.033 2.033 s 2.033 -0.912 2.033 -2.033 C 55.44 40.226 54.528 39.313 53.407 39.313 z" style="stroke: none; stroke-width: 1; stroke-dasharray: none; stroke-linecap: butt; stroke-linejoin: miter; stroke-miterlimit: 10; fill: rgb(255,150,113); fill-rule: nonzero; opacity: 1;" transform=" matrix(1 0 0 1 0 0) " stroke-linecap="round" />
	<path d="M 59.991 51.965 c -2.225 0 -4.034 -1.81 -4.034 -4.034 c 0 -2.224 1.81 -4.033 4.034 -4.033 c 2.224 0 4.033 1.809 4.033 4.033 C 64.024 50.155 62.215 51.965 59.991 51.965 z M 59.991 45.897 c -1.122 0 -2.034 0.912 -2.034 2.033 c 0 1.122 0.912 2.034 2.034 2.034 c 1.121 0 2.033 -0.912 2.033 -2.034 C 62.024 46.81 61.112 45.897 59.991 45.897 z" style="stroke: none; stroke-width: 1; stroke-dasharray: none; stroke-linecap: butt; stroke-linejoin: miter; stroke-miterlimit: 10; fill: rgb(255,150,113); fill-rule: nonzero; opacity: 1;" transform=" matrix(1 0 0 1 0 0) " stroke-linecap="round" />
	<path d="M 59.991 38.797 c -2.225 0 -4.034 -1.81 -4.034 -4.034 s 1.81 -4.034 4.034 -4.034 c 2.224 0 4.033 1.81 4.033 4.034 S 62.215 38.797 59.991 38.797 z M 59.991 32.729 c -1.122 0 -2.034 0.912 -2.034 2.034 s 0.912 2.034 2.034 2.034 c 1.121 0 2.033 -0.912 2.033 -2.034 S 61.112 32.729 59.991 32.729 z" style="stroke: none; stroke-width: 1; stroke-dasharray: none; stroke-linecap: butt; stroke-linejoin: miter; stroke-miterlimit: 10; fill: rgb(255,150,113); fill-rule: nonzero; opacity: 1;" transform=" matrix(1 0 0 1 0 0) " stroke-linecap="round" />
	<path d="M 66.575 45.38 c -2.225 0 -4.034 -1.809 -4.034 -4.033 s 1.81 -4.034 4.034 -4.034 c 2.224 0 4.033 1.81 4.033 4.034 S 68.799 45.38 66.575 45.38 z M 66.575 39.313 c -1.122 0 -2.034 0.912 -2.034 2.034 c 0 1.121 0.912 2.033 2.034 2.033 c 1.121 0 2.033 -0.912 2.033 -2.033 C 68.608 40.226 67.696 39.313 66.575 39.313 z" style="stroke: none; stroke-width: 1; stroke-dasharray: none; stroke-linecap: butt; stroke-linejoin: miter; stroke-miterlimit: 10; fill: rgb(255,150,113); fill-rule: nonzero; opacity: 1;" transform=" matrix(1 0 0 1 0 0) " stroke-linecap="round" />
	<polygon points="39.11,38.4 32.95,38.4 32.95,32.24 26.55,32.24 26.55,38.4 20.39,38.4 20.39,44.8 26.55,44.8 26.55,50.96 32.95,50.96 32.95,44.8 39.11,44.8 " style="stroke: none; stroke-width: 1; stroke-dasharray: none; stroke-linecap: butt; stroke-linejoin: miter; stroke-miterlimit: 10; fill: rgb(175,182,187); fill-rule: nonzero; opacity: 1;" transform="  matrix(1 0 0 1 0 0) "/>
	<path d="M 32.938 51.965 h -6.402 c -0.552 0 -1 -0.447 -1 -1 v -5.16 h -5.16 c -0.552 0 -1 -0.448 -1 -1 v -6.402 c 0 -0.552 0.448 -1 1 -1 h 5.16 v -5.16 c 0 -0.552 0.448 -1 1 -1 h 6.402 c 0.552 0 1 0.448 1 1 v 5.16 h 5.16 c 0.552 0 1 0.448 1 1 v 6.402 c 0 0.552 -0.448 1 -1 1 h -5.16 v 5.16 C 33.938 51.518 33.49 51.965 32.938 51.965 z M 27.536 49.965 h 4.402 v -5.16 c 0 -0.552 0.448 -1 1 -1 h 5.16 v -4.402 h -5.16 c -0.552 0 -1 -0.448 -1 -1 v -5.16 h -4.402 v 5.16 c 0 0.552 -0.448 1 -1 1 h -5.16 v 4.402 h 5.16 c 0.552 0 1 0.448 1 1 V 49.965 z" style="stroke: none; stroke-width: 1; stroke-dasharray: none; stroke-linecap: butt; stroke-linejoin: miter; stroke-miterlimit: 10; fill: rgb(255,150,113); fill-rule: nonzero; opacity: 1;" transform=" matrix(1 0 0 1 0 0) " stroke-linecap="round" />
</g>
</svg>