<svg height="46" viewBox="0 0 23 26" fill="none" xmlns="http://www.w3.org/2000/svg">
<path d="M8.2665 16.0016V11.6537H13.6835C14.3725 11.6537 15.0021 11.5112 15.5723 11.226C16.1426 10.9409 16.594 10.5252 16.9266 9.97871C17.2592 9.43225 17.4255 8.76701 17.4255 7.98297C17.4255 7.22268 17.2592 6.56932 16.9266 6.02286C16.594 5.47641 16.1426 5.06063 15.5723 4.77552C15.0021 4.49042 14.3725 4.34786 13.6835 4.34786H0.842468V0H14.5032C16.095 0 17.5324 0.320744 18.8154 0.962233C20.0984 1.60372 21.1082 2.53032 21.8447 3.74202C22.605 4.92996 22.9851 6.34361 22.9851 7.98297C22.9851 9.62233 22.605 11.0479 21.8447 12.2596C21.1082 13.4475 20.0984 14.3741 18.8154 15.0393C17.5324 15.6808 16.095 16.0016 14.5032 16.0016H8.2665Z" fill="#528FF0"/>
<path d="M0.913713 25.6996V11.7963H6.36637V20.247C6.36637 23.2584 3.92513 25.6996 0.913713 25.6996V25.6996ZM3.65786 11.1013C2.80254 11.1013 2.08978 10.8162 1.51957 10.246C0.973117 9.65204 0.69989 8.93927 0.69989 8.10772C0.69989 7.2524 0.973117 6.53963 1.51957 5.96942C2.08978 5.39921 2.80254 5.11411 3.65786 5.11411C4.51318 5.11411 5.21406 5.39921 5.76052 5.96942C6.30697 6.53963 6.5802 7.2524 6.5802 8.10772C6.5802 8.93927 6.30697 9.65204 5.76052 10.246C5.21406 10.8162 4.51318 11.1013 3.65786 11.1013Z" fill="#0D2366"/>
</svg>
