<svg xmlns="http://www.w3.org/2000/svg" xmlns:xlink="http://www.w3.org/1999/xlink" version="1.1" width="256" height="256" viewBox="0 0 256 256" xml:space="preserve">

<defs>
</defs>
<g style="stroke: none; stroke-width: 0; stroke-dasharray: none; stroke-linecap: butt; stroke-linejoin: miter; stroke-miterlimit: 10; fill: none; fill-rule: nonzero; opacity: 1;" transform="translate(1.4065934065934016 1.4065934065934016) scale(2.81 2.81)" >
	<path d="M 72.3 85.455 c -2.189 -0.086 -4.31 -1.711 -4.31 -4.431 V 39.959 V 4.533 H 0 v 73.305 c 0 4.214 3.416 7.629 7.629 7.629 h 64.683 L 72.3 85.455 z M 33.22 14.055 c 0.867 -0.226 1.744 0.29 1.97 1.151 l 1.985 7.565 l 1.678 -4.072 c 0.249 -0.604 0.838 -0.998 1.491 -0.998 c 0.654 0 1.243 0.394 1.491 0.999 l 1.678 4.072 l 1.985 -7.565 c 0.226 -0.861 1.107 -1.376 1.97 -1.151 c 0.862 0.226 1.377 1.108 1.151 1.97 l -3.205 12.216 c -0.176 0.67 -0.76 1.154 -1.452 1.2 c -0.691 0.055 -1.336 -0.353 -1.6 -0.995 l -2.018 -4.897 l -2.019 4.898 c -0.25 0.607 -0.841 0.998 -1.491 0.998 c -0.036 0 -0.072 -0.001 -0.109 -0.004 c -0.692 -0.047 -1.276 -0.53 -1.452 -1.2 L 32.07 16.025 C 31.843 15.163 32.359 14.281 33.22 14.055 z M 21.665 15.616 c 0 -0.891 0.722 -1.613 1.613 -1.613 h 5.416 c 0.891 0 1.613 0.722 1.613 1.613 c 0 0.891 -0.722 1.613 -1.613 1.613 h -3.802 v 2.881 h 1.929 c 0.891 0 1.613 0.722 1.613 1.613 c 0 0.891 -0.722 1.613 -1.613 1.613 h -1.929 v 2.881 h 3.802 c 0.891 0 1.613 0.722 1.613 1.613 c 0 0.891 -0.722 1.613 -1.613 1.613 h -5.416 c -0.891 0 -1.613 -0.722 -1.613 -1.613 V 15.616 z M 7.999 15.616 c 0 -0.721 0.478 -1.354 1.171 -1.551 c 0.693 -0.196 1.434 0.089 1.813 0.701 l 4.598 7.408 v -6.557 c 0 -0.891 0.722 -1.613 1.613 -1.613 c 0.891 0 1.613 0.722 1.613 1.613 v 12.216 c 0 0.721 -0.478 1.354 -1.171 1.551 c -0.147 0.042 -0.295 0.062 -0.442 0.062 c -0.548 0 -1.071 -0.28 -1.371 -0.763 l -4.598 -7.408 v 6.557 c 0 0.891 -0.722 1.613 -1.613 1.613 s -1.613 -0.722 -1.613 -1.613 V 15.616 z M 9.612 36.01 h 20.801 c 0.891 0 1.613 0.722 1.613 1.613 c 0 0.891 -0.722 1.613 -1.613 1.613 H 9.612 c -0.891 0 -1.613 -0.722 -1.613 -1.613 C 7.999 36.732 8.721 36.01 9.612 36.01 z M 58.378 75.811 H 9.612 c -0.891 0 -1.613 -0.723 -1.613 -1.613 s 0.722 -1.613 1.613 -1.613 h 48.766 c 0.891 0 1.613 0.723 1.613 1.613 S 59.269 75.811 58.378 75.811 z M 58.378 63.62 H 9.612 c -0.891 0 -1.613 -0.723 -1.613 -1.613 s 0.722 -1.613 1.613 -1.613 h 48.766 c 0.891 0 1.613 0.723 1.613 1.613 S 59.269 63.62 58.378 63.62 z M 58.378 51.428 H 9.612 c -0.891 0 -1.613 -0.723 -1.613 -1.613 s 0.722 -1.613 1.613 -1.613 h 48.766 c 0.891 0 1.613 0.723 1.613 1.613 S 59.269 51.428 58.378 51.428 z M 58.378 39.237 H 40.345 c -0.891 0 -1.613 -0.722 -1.613 -1.613 c 0 -0.891 0.722 -1.613 1.613 -1.613 h 18.033 c 0.891 0 1.613 0.722 1.613 1.613 C 59.992 38.515 59.269 39.237 58.378 39.237 z M 59.992 25.709 c 0 2.059 -1.675 3.735 -3.735 3.735 h -3.986 c -0.891 0 -1.613 -0.722 -1.613 -1.613 c 0 -0.891 0.723 -1.613 1.613 -1.613 h 3.986 c 0.275 0 0.508 -0.233 0.508 -0.508 v -1.864 c 0 -0.276 -0.233 -0.508 -0.508 -0.508 h -2.219 c -2.06 0 -3.735 -1.675 -3.735 -3.735 v -1.864 c 0 -2.06 1.675 -3.735 3.735 -3.735 h 2.861 c 0.891 0 1.613 0.722 1.613 1.613 c 0 0.891 -0.723 1.613 -1.613 1.613 h -2.861 c -0.275 0 -0.508 0.233 -0.508 0.508 v 1.864 c 0 0.276 0.233 0.508 0.508 0.508 h 2.219 c 2.06 0 3.735 1.675 3.735 3.735 V 25.709 z" style="stroke: none; stroke-width: 1; stroke-dasharray: none; stroke-linecap: butt; stroke-linejoin: miter; stroke-miterlimit: 10; fill: rgb(255,150,113); fill-rule: nonzero; opacity: 1;" transform=" matrix(1 0 0 1 0 0) " stroke-linecap="round" />
	<path d="M 72.304 81.145 c 0.018 0.002 0.138 0.025 0.204 0.02 c 0.003 -0.011 0.021 -0.039 0.042 -0.083 L 90 44.261 H 72.292 v 36.763 C 72.292 81.109 72.304 81.145 72.304 81.145 z" style="stroke: none; stroke-width: 1; stroke-dasharray: none; stroke-linecap: butt; stroke-linejoin: miter; stroke-miterlimit: 10; fill: rgb(255,150,113); fill-rule: nonzero; opacity: 1;" transform=" matrix(1 0 0 1 0 0) " stroke-linecap="round" />
</g>
</svg>