<svg xmlns="http://www.w3.org/2000/svg" xmlns:xlink="http://www.w3.org/1999/xlink" version="1.1" width="256" height="256" viewBox="0 0 256 256" xml:space="preserve">

<defs>
</defs>
<g style="stroke: none; stroke-width: 0; stroke-dasharray: none; stroke-linecap: butt; stroke-linejoin: miter; stroke-miterlimit: 10; fill: none; fill-rule: nonzero; opacity: 1;" transform="translate(1.4065934065934016 1.4065934065934016) scale(2.81 2.81)" >
	<path d="M 38.105 10.26 c -18.35 0 -33.278 12.491 -33.278 27.845 c 0 5.78 2.093 11.321 6.051 16.023 c 0.598 0.711 0.527 1.744 -0.16 2.352 l -10.718 9.469 h 38.105 c 18.35 0 33.278 -12.491 33.278 -27.844 C 71.383 22.751 56.455 10.26 38.105 10.26 z M 22.838 41.813 c -2.358 0 -4.269 -1.911 -4.269 -4.269 c 0 -2.358 1.911 -4.269 4.269 -4.269 s 4.269 1.911 4.269 4.269 C 27.107 39.902 25.196 41.813 22.838 41.813 z M 37.803 41.813 c -2.358 0 -4.269 -1.911 -4.269 -4.269 c 0 -2.358 1.911 -4.269 4.269 -4.269 c 2.358 0 4.269 1.911 4.269 4.269 C 42.072 39.902 40.161 41.813 37.803 41.813 z M 52.768 41.813 c -2.358 0 -4.269 -1.911 -4.269 -4.269 c 0 -2.358 1.911 -4.269 4.269 -4.269 s 4.269 1.911 4.269 4.269 C 57.037 39.902 55.126 41.813 52.768 41.813 z" style="stroke: none; stroke-width: 1; stroke-dasharray: none; stroke-linecap: butt; stroke-linejoin: miter; stroke-miterlimit: 10; fill: rgb(255,150,113); fill-rule: nonzero; opacity: 1;" transform=" matrix(1 0 0 1 0 0) " stroke-linecap="round" />
	<path d="M 79.236 70.27 c -0.688 -0.608 -0.758 -1.641 -0.16 -2.352 c 3.958 -4.702 6.051 -10.243 6.051 -16.023 c 0 -7.322 -3.4 -13.988 -8.942 -18.964 c 0.329 1.685 0.507 3.412 0.507 5.173 c 0 17.637 -17.148 31.985 -38.228 31.985 H 26.689 c 6.107 5.904 15.117 9.65 25.159 9.65 h 38.105 L 79.236 70.27 z" style="stroke: none; stroke-width: 1; stroke-dasharray: none; stroke-linecap: butt; stroke-linejoin: miter; stroke-miterlimit: 10; fill: rgb(255,150,113); fill-rule: nonzero; opacity: 1;" transform=" matrix(1 0 0 1 0 0) " stroke-linecap="round" />
</g>
</svg>