<svg xmlns="http://www.w3.org/2000/svg" xmlns:xlink="http://www.w3.org/1999/xlink" version="1.1" width="256" height="256" viewBox="0 0 256 256" xml:space="preserve">

<defs>
</defs>
<g style="stroke: none; stroke-width: 0; stroke-dasharray: none; stroke-linecap: butt; stroke-linejoin: miter; stroke-miterlimit: 10; fill: none; fill-rule: nonzero; opacity: 1;" transform="translate(1.4065934065934016 1.4065934065934016) scale(2.81 2.81)" >
	<path d="M 0 2.8 h 18.5 c 1.4 0 2.6 1.2 2.6 2.6 v 49.2 c 0 1.4 -1.2 2.6 -2.6 2.6 H 0 V 2.8 z" style="stroke: none; stroke-width: 1; stroke-dasharray: none; stroke-linecap: butt; stroke-linejoin: miter; stroke-miterlimit: 10; fill: rgb(255,150,113); fill-rule: nonzero; opacity: 1;" transform=" matrix(1 0 0 1 0 0) " stroke-linecap="round" />
	<path d="M 83.2 43.7 c 3.8 0 6.8 3.1 6.8 6.8 s -3.1 6.8 -6.8 6.8 H 61.6 c 3.8 6.8 3.9 27.3 -5 29.8 c -1.7 0.5 -3.4 -0.8 -3.6 -2.6 c -1.6 -14.4 -10.4 -32.4 -19.4 -32.9 h -7 v -43 h 3.6 c 2 0 3.8 -0.7 5.4 -1.7 c 4.1 -2.7 10.9 -4.3 17.5 -4.1 h 3.2 v 0 h 21.8 c 3.8 0 6.8 3.1 6.8 6.8 s -3.1 6.8 -6.8 6.8 h 3 c 3.8 0 6.8 3.1 6.8 6.8 s -3.1 6.8 -6.8 6.8 h 2 c 3.8 0 6.8 3.1 6.8 6.8 S 86.9 43.7 83.2 43.7 z" style="stroke: none; stroke-width: 1; stroke-dasharray: none; stroke-linecap: butt; stroke-linejoin: miter; stroke-miterlimit: 10; fill: rgb(255,150,113); fill-rule: nonzero; opacity: 1;" transform=" matrix(1 0 0 1 0 0) " stroke-linecap="round" />
</g>
</svg>