<svg xmlns="http://www.w3.org/2000/svg" xmlns:xlink="http://www.w3.org/1999/xlink" version="1.1" width="256" height="256" viewBox="0 0 256 256" xml:space="preserve">

<defs>
</defs>
<g style="stroke: none; stroke-width: 0; stroke-dasharray: none; stroke-linecap: butt; stroke-linejoin: miter; stroke-miterlimit: 10; fill: none; fill-rule: nonzero; opacity: 1;" transform="translate(1.4065934065934016 1.4065934065934016) scale(2.81 2.81)" >
	<path d="M 73.279 12.394 c -7.898 17.765 -10.351 34.683 -9.988 56.353 l -33.728 0 c -0.551 -20.272 1.752 -39.085 10.294 -57.109 c 0.413 -0.871 1.301 -1.422 2.265 -1.422 l 29.732 0 C 72.976 10.216 73.735 11.37 73.279 12.394 z" style="stroke: none; stroke-width: 1; stroke-dasharray: none; stroke-linecap: butt; stroke-linejoin: miter; stroke-miterlimit: 10; fill: rgb(255,150,113); fill-rule: nonzero; opacity: 1;" transform=" matrix(1 0 0 1 0 0) " stroke-linecap="round" />
	<path d="M 64.691 5.986 c -5.16 20.548 -7.682 41.705 -7.317 63.527 l -33.728 0 c -0.549 -20.191 2.493 -41.577 7.392 -63.58 c 0.261 -1.174 1.308 -2.011 2.511 -2.011 l 29.54 0 C 64.17 3.922 64.954 4.937 64.691 5.986 z" style="stroke: none; stroke-width: 1; stroke-dasharray: none; stroke-linecap: butt; stroke-linejoin: miter; stroke-miterlimit: 10; fill: rgb(232,135,101); fill-rule: nonzero; opacity: 1;" transform=" matrix(1 0 0 1 0 0) " stroke-linecap="round" />
	<path d="M 53.452 2.052 l 0 61.487 c 0 1.133 -0.919 2.052 -2.052 2.052 l -29.624 0 c -1.133 0 -2.052 -0.919 -2.052 -2.052 l 0 -61.487 C 19.724 0.919 20.643 0 21.776 0 L 51.4 0 C 52.534 0 53.452 0.919 53.452 2.052 z" style="stroke: none; stroke-width: 1; stroke-dasharray: none; stroke-linecap: butt; stroke-linejoin: miter; stroke-miterlimit: 10; fill: rgb(255,150,113); fill-rule: nonzero; opacity: 1;" transform=" matrix(1 0 0 1 0 0) " stroke-linecap="round" />
	<path d="M 22.527 8.652 l 0 48.277 c 3.375 0 6.111 2.736 6.111 6.111 l 15.935 0 c 0 -3.375 2.736 -6.111 6.111 -6.111 l 0 -48.277 c -0.061 0.002 -0.121 0.009 -0.183 0.009 c -3.375 0 -6.111 -2.736 -6.111 -6.111 l -15.935 0 C 28.455 5.864 25.816 8.555 22.527 8.652 z" style="stroke: none; stroke-width: 1; stroke-dasharray: none; stroke-linecap: butt; stroke-linejoin: miter; stroke-miterlimit: 10; fill: rgb(200,102,67); fill-rule: nonzero; opacity: 1;" transform=" matrix(1 0 0 1 0 0) " stroke-linecap="round" />
	<circle cx="23.990000000000002" cy="61.51" r="1.53" style="stroke: none; stroke-width: 1; stroke-dasharray: none; stroke-linecap: butt; stroke-linejoin: miter; stroke-miterlimit: 10; fill: rgb(200,102,67); fill-rule: nonzero; opacity: 1;" transform="  matrix(1 0 0 1 0 0) "/>
	<circle cx="49.15" cy="61.51" r="1.53" style="stroke: none; stroke-width: 1; stroke-dasharray: none; stroke-linecap: butt; stroke-linejoin: miter; stroke-miterlimit: 10; fill: rgb(200,102,67); fill-rule: nonzero; opacity: 1;" transform="  matrix(1 0 0 1 0 0) "/>
	<circle cx="24.02" cy="4.08" r="1.53" style="stroke: none; stroke-width: 1; stroke-dasharray: none; stroke-linecap: butt; stroke-linejoin: miter; stroke-miterlimit: 10; fill: rgb(200,102,67); fill-rule: nonzero; opacity: 1;" transform="  matrix(1 0 0 1 0 0) "/>
	<circle cx="49.19" cy="4.08" r="1.53" style="stroke: none; stroke-width: 1; stroke-dasharray: none; stroke-linecap: butt; stroke-linejoin: miter; stroke-miterlimit: 10; fill: rgb(200,102,67); fill-rule: nonzero; opacity: 1;" transform="  matrix(1 0 0 1 0 0) "/>
	<circle cx="36.585" cy="32.795" r="12.025" style="stroke: none; stroke-width: 1; stroke-dasharray: none; stroke-linecap: butt; stroke-linejoin: miter; stroke-miterlimit: 10; fill: rgb(255,150,113); fill-rule: nonzero; opacity: 1;" transform="  matrix(1 0 0 1 0 0) "/>
	<path d="M 37.779 28.743 c -1.394 0.667 -2.04 2.316 -2.446 3.678 c -0.488 1.636 -0.908 1.988 -1.066 2.064 c -0.103 0.049 -0.271 0.027 -0.461 -0.051 c -0.545 -0.244 -0.925 -0.957 -0.925 -1.734 c 0 -0.558 0.197 -1.084 0.51 -1.427 c 0.231 -0.253 0.275 -0.623 0.135 -0.936 l -0.367 -0.818 c -0.242 -0.541 -0.947 -0.711 -1.39 -0.318 c -0.677 0.598 -1.157 1.434 -1.372 2.381 h -0.967 c -0.491 0 -0.89 0.398 -0.89 0.89 v 0.84 c 0 0.491 0.398 0.89 0.89 0.89 h 1.07 c 0.373 1.179 1.175 2.149 2.275 2.641 c 1.173 0.481 2.074 0.269 2.623 0.006 c 1.395 -0.667 2.04 -2.316 2.446 -3.678 c 0.488 -1.637 0.908 -1.989 1.066 -2.065 c 0.102 -0.049 0.271 -0.026 0.461 0.051 c 0.545 0.244 0.925 0.957 0.925 1.735 c 0 0.559 -0.196 1.084 -0.509 1.426 c -0.231 0.252 -0.275 0.623 -0.135 0.935 l 0.367 0.818 c 0.245 0.547 0.955 0.707 1.403 0.31 c 0.628 -0.557 1.088 -1.317 1.321 -2.18 h 1.006 c 0.491 0 0.89 -0.398 0.89 -0.89 v -0.84 c 0 -0.491 -0.398 -0.89 -0.89 -0.89 h -1.006 c -0.343 -1.267 -1.179 -2.313 -2.339 -2.832 C 39.228 28.269 38.328 28.48 37.779 28.743 z" style="stroke: none; stroke-width: 1; stroke-dasharray: none; stroke-linecap: butt; stroke-linejoin: miter; stroke-miterlimit: 10; fill: rgb(200,102,67); fill-rule: nonzero; opacity: 1;" transform=" matrix(1 0 0 1 0 0) " stroke-linecap="round" />
	<path d="M 37.864 48.748 v 5.991 c 0 0.704 -0.571 1.275 -1.275 1.275 h 0 c -0.704 0 -1.275 -0.571 -1.275 -1.275 v -5.991 c 0 -0.704 0.571 -1.275 1.275 -1.275 h 0 C 37.293 47.473 37.864 48.044 37.864 48.748 z" style="stroke: none; stroke-width: 1; stroke-dasharray: none; stroke-linecap: butt; stroke-linejoin: miter; stroke-miterlimit: 10; fill: rgb(255,150,113); fill-rule: nonzero; opacity: 1;" transform=" matrix(1 0 0 1 0 0) " stroke-linecap="round" />
	<path d="M 37.864 10.851 v 5.991 c 0 0.704 -0.571 1.275 -1.275 1.275 h 0 c -0.704 0 -1.275 -0.571 -1.275 -1.275 v -5.991 c 0 -0.704 0.571 -1.275 1.275 -1.275 h 0 C 37.293 9.576 37.864 10.147 37.864 10.851 z" style="stroke: none; stroke-width: 1; stroke-dasharray: none; stroke-linecap: butt; stroke-linejoin: miter; stroke-miterlimit: 10; fill: rgb(255,150,113); fill-rule: nonzero; opacity: 1;" transform=" matrix(1 0 0 1 0 0) " stroke-linecap="round" />
	<path d="M 75.669 90 H 14.331 c -2.557 0 -4.63 -2.073 -4.63 -4.63 V 44.637 c 0 -2.557 2.073 -4.63 4.63 -4.63 h 61.337 c 2.557 0 4.63 2.073 4.63 4.63 V 85.37 C 80.299 87.927 78.226 90 75.669 90 z" style="stroke: none; stroke-width: 1; stroke-dasharray: none; stroke-linecap: butt; stroke-linejoin: miter; stroke-miterlimit: 10; fill: rgb(255,150,113); fill-rule: nonzero; opacity: 1;" transform=" matrix(1 0 0 1 0 0) " stroke-linecap="round" />
	<path d="M 75.669 40.007 h -1.257 v 21.072 c 0 14.347 -11.631 25.978 -25.978 25.978 H 10.029 C 10.705 88.777 12.371 90 14.331 90 h 61.337 c 2.557 0 4.63 -2.073 4.63 -4.63 V 44.637 C 80.299 42.08 78.226 40.007 75.669 40.007 z" style="stroke: none; stroke-width: 1; stroke-dasharray: none; stroke-linecap: butt; stroke-linejoin: miter; stroke-miterlimit: 10; fill: rgb(220,134,104); fill-rule: nonzero; opacity: 1;" transform=" matrix(1 0 0 1 0 0) " stroke-linecap="round" />
	<path d="M 16.547 45.871 h -1.472 c -0.271 0 -0.491 -0.219 -0.491 -0.491 c 0 -0.271 0.219 -0.491 0.491 -0.491 h 1.472 c 0.271 0 0.491 0.219 0.491 0.491 C 17.037 45.651 16.818 45.871 16.547 45.871 z" style="stroke: none; stroke-width: 1; stroke-dasharray: none; stroke-linecap: butt; stroke-linejoin: miter; stroke-miterlimit: 10; fill: rgb(220,134,104); fill-rule: nonzero; opacity: 1;" transform=" matrix(1 0 0 1 0 0) " stroke-linecap="round" />
	<path d="M 65.489 45.871 H 62.43 c -0.271 0 -0.491 -0.219 -0.491 -0.491 c 0 -0.271 0.219 -0.491 0.491 -0.491 h 3.058 c 0.271 0 0.491 0.219 0.491 0.491 C 65.979 45.651 65.76 45.871 65.489 45.871 z M 59.371 45.871 h -3.058 c -0.271 0 -0.491 -0.219 -0.491 -0.491 c 0 -0.271 0.219 -0.491 0.491 -0.491 h 3.058 c 0.271 0 0.491 0.219 0.491 0.491 C 59.861 45.651 59.642 45.871 59.371 45.871 z M 53.253 45.871 h -3.058 c -0.271 0 -0.491 -0.219 -0.491 -0.491 c 0 -0.271 0.219 -0.491 0.491 -0.491 h 3.058 c 0.271 0 0.491 0.219 0.491 0.491 C 53.744 45.651 53.524 45.871 53.253 45.871 z M 47.135 45.871 h -3.058 c -0.271 0 -0.491 -0.219 -0.491 -0.491 c 0 -0.271 0.219 -0.491 0.491 -0.491 h 3.058 c 0.271 0 0.491 0.219 0.491 0.491 C 47.626 45.651 47.406 45.871 47.135 45.871 z M 41.017 45.871 h -3.058 c -0.271 0 -0.491 -0.219 -0.491 -0.491 c 0 -0.271 0.219 -0.491 0.491 -0.491 h 3.058 c 0.271 0 0.491 0.219 0.491 0.491 C 41.508 45.651 41.289 45.871 41.017 45.871 z M 34.9 45.871 h -3.058 c -0.271 0 -0.491 -0.219 -0.491 -0.491 c 0 -0.271 0.219 -0.491 0.491 -0.491 H 34.9 c 0.271 0 0.491 0.219 0.491 0.491 C 35.39 45.651 35.171 45.871 34.9 45.871 z M 28.782 45.871 h -3.059 c -0.271 0 -0.491 -0.219 -0.491 -0.491 c 0 -0.271 0.219 -0.491 0.491 -0.491 h 3.059 c 0.271 0 0.491 0.219 0.491 0.491 C 29.273 45.651 29.053 45.871 28.782 45.871 z M 22.664 45.871 h -3.059 c -0.271 0 -0.491 -0.219 -0.491 -0.491 c 0 -0.271 0.219 -0.491 0.491 -0.491 h 3.059 c 0.271 0 0.491 0.219 0.491 0.491 C 23.155 45.651 22.936 45.871 22.664 45.871 z" style="stroke: none; stroke-width: 1; stroke-dasharray: none; stroke-linecap: butt; stroke-linejoin: miter; stroke-miterlimit: 10; fill: rgb(220,134,104); fill-rule: nonzero; opacity: 1;" transform=" matrix(1 0 0 1 0 0) " stroke-linecap="round" />
	<path d="M 70.019 45.871 h -1.472 c -0.271 0 -0.491 -0.219 -0.491 -0.491 c 0 -0.271 0.219 -0.491 0.491 -0.491 h 1.472 c 0.271 0 0.491 0.219 0.491 0.491 C 70.509 45.651 70.29 45.871 70.019 45.871 z" style="stroke: none; stroke-width: 1; stroke-dasharray: none; stroke-linecap: butt; stroke-linejoin: miter; stroke-miterlimit: 10; fill: rgb(220,134,104); fill-rule: nonzero; opacity: 1;" transform=" matrix(1 0 0 1 0 0) " stroke-linecap="round" />
	<path d="M 52.358 85.117 h -1.472 c -0.271 0 -0.491 -0.219 -0.491 -0.491 s 0.219 -0.491 0.491 -0.491 h 1.472 c 0.271 0 0.491 0.219 0.491 0.491 S 52.629 85.117 52.358 85.117 z" style="stroke: none; stroke-width: 1; stroke-dasharray: none; stroke-linecap: butt; stroke-linejoin: miter; stroke-miterlimit: 10; fill: rgb(220,134,104); fill-rule: nonzero; opacity: 1;" transform=" matrix(1 0 0 1 0 0) " stroke-linecap="round" />
	<path d="M 47.765 85.117 h -3.122 c -0.271 0 -0.491 -0.219 -0.491 -0.491 s 0.219 -0.491 0.491 -0.491 h 3.122 c 0.271 0 0.491 0.219 0.491 0.491 S 48.036 85.117 47.765 85.117 z M 41.521 85.117 h -3.123 c -0.271 0 -0.491 -0.219 -0.491 -0.491 s 0.219 -0.491 0.491 -0.491 h 3.123 c 0.271 0 0.491 0.219 0.491 0.491 S 41.793 85.117 41.521 85.117 z M 35.277 85.117 h -3.122 c -0.271 0 -0.491 -0.219 -0.491 -0.491 s 0.219 -0.491 0.491 -0.491 h 3.122 c 0.271 0 0.491 0.219 0.491 0.491 S 35.548 85.117 35.277 85.117 z M 29.034 85.117 h -3.122 c -0.271 0 -0.491 -0.219 -0.491 -0.491 s 0.219 -0.491 0.491 -0.491 h 3.122 c 0.271 0 0.491 0.219 0.491 0.491 S 29.305 85.117 29.034 85.117 z M 22.79 85.117 h -3.122 c -0.271 0 -0.491 -0.219 -0.491 -0.491 s 0.219 -0.491 0.491 -0.491 h 3.122 c 0.271 0 0.491 0.219 0.491 0.491 S 23.061 85.117 22.79 85.117 z" style="stroke: none; stroke-width: 1; stroke-dasharray: none; stroke-linecap: butt; stroke-linejoin: miter; stroke-miterlimit: 10; fill: rgb(220,134,104); fill-rule: nonzero; opacity: 1;" transform=" matrix(1 0 0 1 0 0) " stroke-linecap="round" />
	<path d="M 16.547 85.117 h -1.472 c -0.271 0 -0.491 -0.219 -0.491 -0.491 s 0.219 -0.491 0.491 -0.491 h 1.472 c 0.271 0 0.491 0.219 0.491 0.491 S 16.818 85.117 16.547 85.117 z" style="stroke: none; stroke-width: 1; stroke-dasharray: none; stroke-linecap: butt; stroke-linejoin: miter; stroke-miterlimit: 10; fill: rgb(220,134,104); fill-rule: nonzero; opacity: 1;" transform=" matrix(1 0 0 1 0 0) " stroke-linecap="round" />
	<path d="M 80.218 69.438 H 62.379 c -3.063 0 -5.547 -2.483 -5.547 -5.547 v 0 c 0 -3.063 2.483 -5.547 5.547 -5.547 h 17.839 V 69.438 z" style="stroke: none; stroke-width: 1; stroke-dasharray: none; stroke-linecap: butt; stroke-linejoin: miter; stroke-miterlimit: 10; fill: rgb(232,123,84); fill-rule: nonzero; opacity: 1;" transform=" matrix(1 0 0 1 0 0) " stroke-linecap="round" />
	<path d="M 74.412 61.079 c 0 2.926 -0.491 5.735 -1.383 8.359 h 7.189 V 58.345 h -5.806 V 61.079 z" style="stroke: none; stroke-width: 1; stroke-dasharray: none; stroke-linecap: butt; stroke-linejoin: miter; stroke-miterlimit: 10; fill: rgb(213,94,51); fill-rule: nonzero; opacity: 1;" transform=" matrix(1 0 0 1 0 0) " stroke-linecap="round" />
	<circle cx="62" cy="63.89" r="2.54" style="stroke: none; stroke-width: 1; stroke-dasharray: none; stroke-linecap: butt; stroke-linejoin: miter; stroke-miterlimit: 10; fill: rgb(213,94,51); fill-rule: nonzero; opacity: 1;" transform="  matrix(1 0 0 1 0 0) "/>
</g>
</svg>